<svg width="110" height="110" viewBox="0 0 110 110" fill="none" xmlns="http://www.w3.org/2000/svg">
<circle cx="55" cy="55" r="55" fill="#EDEDED"/>
<circle cx="55" cy="55" r="50" stroke="white" stroke-width="2"/>
<path fill-rule="evenodd" clip-rule="evenodd" d="M62.5002 36.7568C62.5002 36.3848 62.926 36.1397 63.2947 36.2999L67.5002 38.125L63.2947 39.9503C62.926 40.1101 62.5002 39.8654 62.5002 39.4931V36.7568ZM67.5002 38.125L71.7059 36.2999C72.0745 36.1397 72.5002 36.3848 72.5002 36.7568V39.4931C72.5002 39.8654 72.0745 40.1101 71.7059 39.9503L67.5002 38.125ZM67.5005 42.8125C65.7746 42.8125 64.3755 44.2116 64.3755 45.9375C64.3755 47.6634 65.7746 49.0625 67.5005 49.0625C69.2264 49.0625 70.6255 47.6634 70.6255 45.9375C70.6255 44.2116 69.2264 42.8125 67.5005 42.8125ZM61.8755 45.9375C61.8755 42.8309 64.3939 40.3125 67.5005 40.3125C70.6071 40.3125 73.1255 42.8309 73.1255 45.9375C73.1255 48.1144 71.889 50.0024 70.08 50.9375H70.6255C71.6704 50.9375 72.646 51.4598 73.2256 52.3291L78.2256 59.8291C79.183 61.2651 78.7949 63.2053 77.3589 64.1626C76.6234 64.653 75.7556 64.7904 74.9554 64.6149L76.1185 66.941L77.023 68.75H75.0005H73.7505V71.5625C73.7505 73.2884 72.3514 74.6875 70.6255 74.6875C68.8996 74.6875 67.5005 73.2884 67.5005 71.5625C67.5005 73.2884 66.1014 74.6875 64.3755 74.6875C62.6496 74.6875 61.2505 73.2884 61.2505 71.5625V68.75H60.0005H57.9779L58.8824 66.941L60.0455 64.6149C59.2452 64.7904 58.3775 64.653 57.642 64.1626C56.206 63.2053 55.818 61.2651 56.7752 59.8291L61.7752 52.3291C62.3549 51.4598 63.3306 50.9375 64.3755 50.9375H64.921C63.112 50.0024 61.8755 48.1144 61.8755 45.9375ZM62.023 66.25H62.5005H63.7505V67.5V71.5625C63.7505 71.9076 64.0302 72.1875 64.3755 72.1875C64.7206 72.1875 65.0005 71.9076 65.0005 71.5625V67.5V66.25H66.2505H68.7505H70.0005V67.5V71.5625C70.0005 71.9076 70.2802 72.1875 70.6255 72.1875C70.9706 72.1875 71.2505 71.9076 71.2505 71.5625V67.5V66.25H72.5005H72.9779L71.3824 63.059L71.2505 62.7951V62.5V60.2553V56.1268L73.5405 59.5619L75.1055 61.9091C75.2969 62.1964 75.685 62.274 75.9721 62.0825C76.2594 61.891 76.337 61.503 76.1455 61.2158L71.1455 53.7158C71.0296 53.542 70.8345 53.4375 70.6255 53.4375H64.3755C64.1665 53.4375 63.9714 53.542 63.8554 53.7158L58.8554 61.2158C58.664 61.503 58.7416 61.891 59.0287 62.0825C59.316 62.274 59.704 62.1964 59.8955 61.9091L61.4604 59.5619L63.7505 56.1268V60.2553V62.5V62.7951L63.6185 63.059L62.023 66.25ZM40.0004 45.9729C40.0004 44.247 41.3995 42.8479 43.1254 42.8479C44.8512 42.8479 46.2504 44.247 46.2504 45.9729C46.2504 47.6988 44.8512 49.0979 43.1254 49.0979C41.3995 49.0979 40.0004 47.6988 40.0004 45.9729ZM43.1254 40.3479C40.0187 40.3479 37.5004 42.8663 37.5004 45.9729C37.5004 48.1498 38.7369 50.0378 40.5459 50.9729H39.3754C38.3305 50.9729 37.3548 51.4951 36.7752 52.3645L31.7752 59.8645C30.8178 61.3005 31.2059 63.2408 32.6419 64.198C33.7742 64.953 35.2201 64.8714 36.2503 64.099V71.5979C36.2503 73.3238 37.6495 74.7229 39.3754 74.7229C41.1012 74.7229 42.5004 73.3238 42.5004 71.5979V66.5979H43.7504V71.5979C43.7504 73.3238 45.1495 74.7229 46.8754 74.7229C48.6012 74.7229 50.0004 73.3238 50.0004 71.5979V64.099C51.0306 64.8714 52.4764 64.953 53.6087 64.198C55.0447 63.2408 55.4329 61.3005 54.4755 59.8645L49.4755 52.3645C48.8959 51.4951 47.9201 50.9729 46.8754 50.9729H45.7049C47.5137 50.0378 48.7504 48.1498 48.7504 45.9729C48.7504 42.8663 46.2319 40.3479 43.1254 40.3479ZM38.8552 53.7513C38.9712 53.5774 39.1664 53.4729 39.3754 53.4729H46.8754C47.0842 53.4729 47.2795 53.5774 47.3954 53.7513L52.3954 61.2513C52.5869 61.5384 52.5092 61.9265 52.222 62.1179C51.9349 62.3094 51.5467 62.2318 51.3552 61.9446L49.7904 59.5973L47.5004 56.1621V60.2906V71.5979C47.5004 71.9431 47.2205 72.2229 46.8754 72.2229C46.5301 72.2229 46.2504 71.9431 46.2504 71.5979V65.3479V64.0979H45.0004H41.2504H40.0004V65.3479V71.5979C40.0004 71.9431 39.7205 72.2229 39.3754 72.2229C39.0301 72.2229 38.7504 71.9431 38.7504 71.5979V60.2906V56.1621L36.4603 59.5973L34.8954 61.9446C34.7039 62.2318 34.3159 62.3094 34.0286 62.1179C33.7414 61.9265 33.6638 61.5384 33.8553 61.2513L38.8552 53.7513Z" fill="#333333"/>
</svg>
