<svg width="23" height="21" viewBox="0 0 23 21" fill="none" xmlns="http://www.w3.org/2000/svg">
<path d="M2.3696 15.956C2.16144 15.9193 2.01248 15.7497 1.9972 15.532L1.4648 5.5677L1.20461 5.52182C0.635236 5.40351 0.26694 4.8549 0.368033 4.28157C0.469126 3.70824 1.02019 3.32174 1.60998 3.42573C2.18241 3.52667 2.5854 4.0814 2.48124 4.6721C2.45673 4.81109 2.39447 4.96133 2.31792 5.09114L2.10973 5.35897L6.45423 8.3105L11.4029 2.967L11.1764 2.73002C10.9325 2.48997 10.8173 2.12928 10.8785 1.78181C10.9796 1.20848 11.5337 0.804606 12.1235 0.908601C12.7133 1.01259 13.099 1.56427 12.9948 2.15497C12.9335 2.50244 12.7019 2.80195 12.3906 2.94412L12.0998 3.07198L14.503 9.72971L20.0144 8.49813L19.9307 8.16093C19.9032 8.01277 19.893 7.86766 19.9175 7.72867C20.0186 7.15534 20.5728 6.75147 21.1625 6.85546C21.735 6.9564 22.138 7.51113 22.0338 8.10183C21.9327 8.67516 21.3786 9.07903 20.7888 8.97504L20.4939 8.92304L16.5825 18.1218C16.4937 18.3211 16.2958 18.4295 16.0876 18.3928L2.36653 15.9734L2.3696 15.956ZM2.8697 15.1485L15.9143 17.4486L19.2683 9.58471L14.3345 10.6853C14.2794 10.6935 14.2243 10.7017 14.1549 10.6894C13.9988 10.6619 13.8754 10.5506 13.8101 10.4136L11.516 4.15134L6.83677 9.18407C6.7286 9.29039 6.57451 9.35279 6.43574 9.32832C6.36635 9.31609 6.31738 9.28954 6.2684 9.26299L2.41874 6.64951L2.8697 15.1485ZM1.22645 18.2803C0.931558 18.2283 0.745878 17.9626 0.797957 17.6673C0.850035 17.3719 1.11536 17.1858 1.41025 17.2378L16.5711 19.9111C16.866 19.9631 17.0517 20.2287 16.9996 20.5241C16.9475 20.8194 16.6822 21.0055 16.3873 20.9535L1.22645 18.2803Z" fill="black"/>
<path d="M2.8697 15.1485L15.9143 17.4486L19.2683 9.58471L14.3345 10.6853C14.2794 10.6935 14.2243 10.7017 14.1549 10.6894C13.9988 10.6619 13.8754 10.5506 13.8101 10.4136L11.516 4.15134L6.83677 9.18407C6.7286 9.29039 6.57451 9.35279 6.43574 9.32832C6.36635 9.31609 6.31738 9.28954 6.2684 9.26299L2.41874 6.64951L2.8697 15.1485Z" fill="black"/>
</svg>
