<svg width="110" height="110" viewBox="0 0 110 110" fill="none" xmlns="http://www.w3.org/2000/svg">
<circle cx="55" cy="55" r="55" fill="#EDEDED"/>
<circle cx="55" cy="55" r="50" stroke="white" stroke-width="2"/>
<path d="M34 55H40M40 55H46M40 55V49M40 55V61M49 46H55V64M73 59.5V50.5C73 49.3065 72.5259 48.1619 71.682 47.318C70.8381 46.4741 69.6935 46 68.5 46C67.3065 46 66.1619 46.4741 65.318 47.318C64.4741 48.1619 64 49.3065 64 50.5V59.5C64 60.6935 64.4741 61.8381 65.318 62.682C66.1619 63.5259 67.3065 64 68.5 64C69.6935 64 70.8381 63.5259 71.682 62.682C72.5259 61.8381 73 60.6935 73 59.5ZM25 55C25 71.5685 38.4315 85 55 85C71.5685 85 85 71.5685 85 55C85 38.4315 71.5685 25 55 25C38.4315 25 25 38.4315 25 55Z" stroke="black" stroke-width="6" stroke-linecap="round" stroke-linejoin="round"/>
</svg>
