<svg width="111" height="110" viewBox="0 0 111 110" fill="none" xmlns="http://www.w3.org/2000/svg">
<circle cx="55.5" cy="55" r="55" fill="#EDEDED"/>
<circle cx="56" cy="55" r="50" stroke="white" stroke-width="2"/>
<g clip-path="url(#clip0_16_397)">
<path d="M78.4872 46.9189C78.5919 46.828 78.715 46.7608 78.8481 46.7218C78.9812 46.6829 79.1211 46.6732 79.2583 46.6933C79.393 46.7123 79.5216 46.7612 79.6349 46.8365C79.7481 46.9118 79.843 47.0115 79.9126 47.1283C79.9934 47.2894 80.0393 47.4658 80.0473 47.6459C80.1061 48.3504 79.9701 49.0574 79.6541 49.6898C79.5053 50.0093 79.2894 50.293 79.021 50.5215C78.8027 50.6981 78.5424 50.8152 78.2654 50.8612L78.1366 50.8812C78.0739 51.1137 78.0043 51.3089 77.9702 51.4127C77.7424 52.0303 76.4318 54.2223 74.8059 54.9041C74.8138 55.3703 74.8592 55.835 74.9415 56.2939C75.0187 56.7338 74.9945 57.1278 75.6055 57.348C75.6461 57.3625 77.5724 58.1879 77.6343 58.2127C77.6343 58.2127 77.0784 61.6977 72.1369 61.6977C67.1955 61.6977 66.5613 58.0946 66.5613 58.0946C66.6791 58.0544 68.4326 57.3619 68.473 57.3473C69.0847 57.1264 69.0606 56.7332 69.137 56.2933C69.2189 55.837 69.2642 55.375 69.2724 54.9115C68.4915 54.5491 67.8056 54.0098 67.2692 53.3364C66.6853 52.6203 66.2594 51.7888 66.0194 50.8966L65.7724 50.8588C65.4954 50.8128 65.235 50.6957 65.0168 50.519C64.7484 50.2905 64.5324 50.0069 64.3837 49.6873C64.0678 49.0549 63.9318 48.3479 63.9905 47.6434C63.9986 47.4633 64.0446 47.287 64.1253 47.1258C64.1949 47.009 64.2898 46.9093 64.4031 46.834C64.5163 46.7587 64.645 46.7098 64.7796 46.6908C64.9168 46.6707 65.0567 46.6805 65.1898 46.7194C65.3229 46.7583 65.446 46.8255 65.5508 46.9164C65.5508 46.9164 65.4793 41.1128 71.8616 41.1766C78.7262 41.2478 78.4872 46.9189 78.4872 46.9189Z" fill="white"/>
<path d="M64.5677 51.658C64.5407 51.1916 64.6117 50.7247 64.7762 50.2874C64.8503 50.3722 64.9315 50.4505 65.0189 50.5215C65.2372 50.6982 65.4975 50.8152 65.7745 50.8612L66.0216 50.8992C66.2612 51.7915 66.687 52.623 67.2709 53.3391C67.734 53.9122 68.3019 54.392 68.9445 54.7528C69.2675 56.7972 64.4413 56.6705 64.7075 55.9912C65.2495 55.6839 65.373 54.935 65.2263 54.3297C65.0796 53.7243 64.8063 53.1252 64.6797 52.5152C64.6196 52.2329 64.5822 51.9463 64.5677 51.658Z" fill="#B5886A"/>
<path d="M79.5553 43.1808C79.509 42.8359 79.4546 42.5249 79.4032 42.2736C78.733 38.9865 75.4227 36.3771 71.9512 36.5678C68.4798 36.3771 65.1695 38.9865 64.4992 42.2736C64.3176 43.1603 64.3393 44.6772 64.5044 45.3849L64.7543 46.6988C64.7631 46.6963 64.772 46.6944 64.7811 46.6933C65.0213 46.6584 65.2658 46.7152 65.466 46.8523C66.7186 45.6858 69.2456 43.8556 70.4565 42.6726C70.3574 43.3714 70.0053 44.56 70.449 44.4378C72.302 43.9505 74.0766 42.9679 75.1502 41.4348C75.3765 42.3403 75.7504 43.5629 76.0251 44.0972C76.4247 44.8748 77.5883 46.676 78.6039 46.8327C78.7984 46.7098 79.0304 46.6605 79.258 46.6937C79.2904 46.6985 79.3225 46.7052 79.3541 46.7138C79.7652 45.7525 79.7035 44.2905 79.5553 43.1808Z" fill="#B5886A"/>
<path d="M59.7347 79.284C59.8721 75.2484 59.7909 69.8396 60.0403 65.6178C60.0656 64.7693 60.1715 63.9251 60.3565 63.0966C60.5203 62.6032 60.7285 62.1257 60.9785 61.6699C61.4662 60.8636 62.2471 60.2829 63.0353 59.7665C64.0062 59.1403 65.0306 58.6012 66.0965 58.1556C66.1976 58.1113 66.3082 58.093 66.4182 58.1024C66.5281 58.1119 66.634 58.1487 66.7261 58.2096C69.4934 60.0539 74.2636 60.4252 77.5363 58.2808C77.6305 58.2209 77.7383 58.1855 77.8497 58.1778C77.9611 58.1701 78.0727 58.1902 78.1743 58.2365C79.1758 58.6631 80.1389 59.175 81.0529 59.7663C81.8404 60.2827 82.6221 60.8627 83.1096 61.6697C83.3596 62.1255 83.5678 62.603 83.7316 63.0964C83.9167 63.9249 84.0226 64.7691 84.0478 65.6176C84.2941 69.787 84.2177 75.297 84.3483 79.3166" fill="#F4B3B3"/>
<path d="M68.9032 54.9282C68.8843 55.4259 68.8323 55.9218 68.7476 56.4126C68.7365 56.4923 68.7215 56.5713 68.7025 56.6495C68.6941 56.6818 68.6844 56.7136 68.6736 56.7451C68.6498 56.8135 68.6659 56.7605 68.6725 56.7477C68.6623 56.7675 68.6515 56.7866 68.6406 56.8059C68.6347 56.8161 68.6009 56.8615 68.6387 56.814C68.6274 56.8278 68.6154 56.841 68.6027 56.8535C68.5573 56.8998 68.5873 56.8762 68.543 56.9055C68.4883 56.9407 68.4304 56.9704 68.37 56.9943C67.9359 57.1724 67.496 57.3381 67.059 57.5092C66.8612 57.5864 66.6643 57.6696 66.4635 57.7397C66.3701 57.7679 66.2911 57.8309 66.2429 57.9158C66.1947 58.0007 66.181 58.1009 66.2047 58.1956C66.2316 58.2898 66.2945 58.3698 66.3797 58.4182C66.465 58.4666 66.5658 58.4796 66.6606 58.4544C67.141 58.287 67.6115 58.0847 68.085 57.8985C68.2472 57.8345 68.4096 57.7708 68.5723 57.7071C69.0254 57.5292 69.3444 57.2389 69.4392 56.7473C69.5594 56.1479 69.628 55.5393 69.6444 54.9282C69.654 54.451 68.9128 54.451 68.9032 54.9282Z" fill="#211715"/>
<path d="M74.435 54.9282C74.4563 55.5185 74.5213 56.1064 74.6296 56.687C74.6559 56.8793 74.7244 57.0633 74.8303 57.2258C74.9958 57.4446 75.223 57.6089 75.4826 57.6974C75.5031 57.7057 75.5245 57.7152 75.5455 57.7226C75.446 57.6871 75.516 57.7102 75.5794 57.7373C75.6983 57.7877 75.8172 57.8383 75.936 57.8892L76.8471 58.2787C77.0768 58.3769 77.3059 58.4768 77.5364 58.572C77.6312 58.5976 77.7322 58.5847 77.8175 58.5362C77.9029 58.4878 77.9657 58.4076 77.9923 58.3131C78.0159 58.2184 78.0022 58.1183 77.954 58.0334C77.9058 57.9485 77.8269 57.8855 77.7334 57.8572C77.9123 57.9315 77.7083 57.8463 77.6619 57.8264L77.3323 57.6854L76.4805 57.3212C76.2562 57.2254 76.0317 57.1298 75.807 57.0345C75.7107 56.9994 75.6183 56.9546 75.5311 56.9008C75.4901 56.8729 75.4562 56.8359 75.4321 56.7927C75.4212 56.7741 75.3898 56.7016 75.4116 56.7584C75.3957 56.7156 75.3826 56.6718 75.3722 56.6273C75.2466 56.0692 75.181 55.4993 75.1767 54.9273C75.1671 54.4509 74.4258 54.4493 74.4355 54.9273L74.435 54.9282Z" fill="#211715"/>
<path d="M74.17 61.6202C72.993 61.8008 71.7977 61.8312 70.613 61.7107C69.57 61.6026 68.492 61.3606 67.5891 60.8079C67.1811 60.5582 66.8084 61.1991 67.2151 61.448C68.2158 62.0604 69.3977 62.3203 70.5506 62.4452C71.822 62.574 73.1047 62.5369 74.3665 62.335C74.4609 62.3082 74.5409 62.2454 74.5894 62.16C74.6378 62.0747 74.6507 61.9737 74.6253 61.879C74.5971 61.7855 74.534 61.7065 74.4491 61.6583C74.3643 61.6102 74.2641 61.5965 74.1694 61.6202H74.17Z" fill="#211715"/>
<path d="M77.0437 60.5775C76.8364 60.7166 76.6214 60.8437 76.3997 60.9582C76.291 61.0142 76.1808 61.0672 76.0691 61.1174C76.043 61.1291 76.0169 61.1405 75.9907 61.152L75.9457 61.1713C75.9967 61.1498 76.0036 61.1469 75.9666 61.1623C75.906 61.1869 75.8457 61.2113 75.7847 61.2346C75.6929 61.2629 75.6143 61.3232 75.5632 61.4044C75.526 61.4681 75.5085 61.5414 75.5132 61.6149C75.5178 61.6885 75.5443 61.7591 75.5892 61.8175C75.6341 61.876 75.6955 61.9197 75.7654 61.9431C75.8353 61.9665 75.9106 61.9685 75.9817 61.9489C76.4863 61.7596 76.9681 61.514 77.4178 61.217C77.4598 61.1924 77.4966 61.1598 77.526 61.121C77.5554 61.0822 77.5769 61.038 77.5893 60.991C77.6016 60.9439 77.6045 60.8948 77.5979 60.8466C77.5913 60.7984 77.5753 60.7519 77.5507 60.7099C77.5261 60.6679 77.4935 60.6311 77.4547 60.6017C77.416 60.5723 77.3718 60.5508 77.3247 60.5385C77.2776 60.5261 77.2286 60.5232 77.1803 60.5298C77.1321 60.5364 77.0857 60.5525 77.0437 60.577V60.5775Z" fill="#211715"/>
<path d="M60.1053 78.8661C60.2416 74.8246 60.1705 70.7785 60.3524 66.7381C60.3987 65.6998 60.4198 64.6395 60.6189 63.6168C60.7947 62.6418 61.2649 61.7441 61.9662 61.0443C62.6748 60.3678 63.5495 59.8442 64.406 59.3783C64.8539 59.1344 65.3128 58.9108 65.7773 58.6999C65.9491 58.5973 66.135 58.5204 66.329 58.4714C66.5065 58.4514 66.687 58.6278 66.8306 58.714C68.229 59.5538 69.866 59.9782 71.4845 60.0892C73.2222 60.2209 74.9658 59.9265 76.5639 59.2316C76.9477 59.0579 77.3189 58.8575 77.6748 58.632C77.8508 58.5217 77.9608 58.5441 78.1487 58.6279C78.3931 58.7372 78.6359 58.8498 78.8772 58.966C79.8087 59.4081 80.6965 59.937 81.5289 60.5455C81.9116 60.8217 82.2563 61.1471 82.554 61.5133C82.8414 61.9046 83.0675 62.3374 83.2246 62.7968C83.5952 63.7748 83.6325 64.829 83.6913 65.8639C83.9211 69.9088 83.9711 73.9616 84.1759 78.0075C84.2006 78.497 84.2278 78.986 84.2577 79.4745C84.2866 79.9484 85.0281 79.9518 84.9989 79.4745C84.743 75.2988 84.6918 71.1141 84.4893 66.9356C84.4388 65.8942 84.4047 64.8444 84.2511 63.8121C84.1088 62.7416 83.6752 61.7306 82.9975 60.8897C82.3347 60.111 81.4258 59.5308 80.5521 59.0175C80.0985 58.751 79.6325 58.5067 79.1581 58.2797C78.708 58.0635 78.1786 57.7181 77.661 57.831C77.4442 57.9015 77.2402 58.0066 77.0569 58.1423C76.8596 58.2596 76.6575 58.3686 76.4507 58.4692C76.0653 58.6552 75.6661 58.8112 75.2567 58.9359C74.4324 59.1878 73.5789 59.3319 72.7176 59.3645C71.0515 59.4497 69.3897 59.1298 67.8743 58.4323C67.5301 58.2674 67.216 58.0638 66.8874 57.8727C66.37 57.5716 65.8889 57.8385 65.4038 58.0589C64.4394 58.4901 63.5129 59.0015 62.6341 59.5877C61.7963 60.1531 60.9909 60.8138 60.5213 61.7289C60.271 62.1961 60.0791 62.6924 59.9499 63.2065C59.8327 63.7616 59.7553 64.3244 59.7183 64.8906C59.556 66.9719 59.523 69.0657 59.4913 71.1522C59.4592 73.2565 59.451 75.3612 59.4036 77.4652C59.3933 77.9319 59.3803 78.3985 59.3647 78.865C59.3492 79.3422 60.0905 79.3416 60.1059 78.865L60.1053 78.8661Z" fill="#211715"/>
<path d="M64.4409 65.508C64.2757 66.5712 64.2085 67.6474 64.2402 68.7229C64.2475 69.9657 64.3094 71.209 64.4101 72.4475C64.4575 73.0343 64.5143 73.6211 64.5872 74.2045C64.5901 74.3018 64.6301 74.3944 64.699 74.4633C64.7679 74.5322 64.8604 74.5722 64.9578 74.5751C65.0559 74.5745 65.1498 74.5352 65.2192 74.4659C65.2885 74.3965 65.3278 74.3026 65.3284 74.2045C65.0286 71.9079 64.9206 69.5903 65.0055 67.2758C65.0179 66.989 65.0355 66.7026 65.062 66.4169C65.0881 66.137 65.1084 65.968 65.1561 65.705C65.1795 65.6104 65.1657 65.5103 65.1175 65.4255C65.0693 65.3407 64.9904 65.2776 64.8971 65.2492C64.8024 65.2239 64.7015 65.2368 64.6162 65.2853C64.5309 65.3337 64.4681 65.4137 64.4413 65.508H64.4409Z" fill="#211715"/>
<path d="M78.9129 65.5384C79.143 67.51 79.1987 69.498 79.0794 71.4794C79.034 72.3876 78.9641 73.294 78.8697 74.1986C78.8003 74.8713 78.6844 75.5266 78.7461 76.2031C78.84 77.2444 79.0207 78.2775 79.1455 79.3152C79.1484 79.4125 79.1884 79.5051 79.2572 79.574C79.3261 79.6429 79.4187 79.6829 79.5161 79.6858C79.6142 79.6852 79.7081 79.646 79.7775 79.5766C79.8469 79.5072 79.8861 79.4133 79.8867 79.3152C79.7738 78.3758 79.6228 77.441 79.5176 76.5007C79.4751 76.1913 79.456 75.8791 79.4605 75.5668C79.4744 75.227 79.5377 74.8841 79.5746 74.5453C79.7863 72.6829 79.8865 70.8095 79.8745 68.9352C79.8669 67.7995 79.7935 66.6652 79.6547 65.5379C79.6517 65.4406 79.6117 65.3481 79.5428 65.2792C79.474 65.2104 79.3815 65.1703 79.2841 65.1673C79.186 65.1679 79.092 65.2071 79.0227 65.2765C78.9533 65.3458 78.9141 65.4398 78.9135 65.5379L78.9129 65.5384Z" fill="#211715"/>
<path d="M64.8617 45.2863C64.682 44.4892 64.705 43.5643 64.7986 42.7366C64.9088 41.8935 65.1984 41.0838 65.6479 40.362C66.5698 38.855 68.0101 37.7363 69.6985 37.2162C70.571 36.9515 71.4383 36.9248 72.3423 36.9293C73.2185 36.937 74.0845 37.1182 74.8903 37.4625C76.5256 38.1553 77.8495 39.4247 78.6102 41.0296C78.9909 41.8497 79.1516 42.7565 79.2401 43.6507C79.3362 44.6228 79.3811 45.6912 78.9992 46.6114C78.9737 46.7062 78.9866 46.8072 79.0351 46.8925C79.0836 46.9779 79.1637 47.0407 79.2582 47.0673C79.3529 47.0909 79.453 47.0772 79.5379 47.029C79.6227 46.9809 79.6858 46.9019 79.714 46.8085C80.0836 45.9179 80.0786 44.8753 80.0059 43.9295C79.9596 43.0416 79.7971 42.1636 79.5224 41.3181C78.8516 39.4956 77.5286 37.9867 75.8094 37.0834C74.9392 36.6204 73.9883 36.3288 73.0082 36.2243C72.5268 36.1856 72.0436 36.1733 71.5608 36.1876C71.0659 36.1916 70.5726 36.246 70.0887 36.35C68.1829 36.7773 66.4991 37.8867 65.3546 39.4693C64.7901 40.2385 64.3875 41.1143 64.1712 42.0435C63.978 42.9748 63.9381 43.9313 64.0529 44.8754C64.0729 45.08 64.1045 45.2832 64.1475 45.4842C64.2526 45.9493 64.9672 45.7525 64.8622 45.2871L64.8617 45.2863Z" fill="#211715"/>
<path d="M74.8203 41.643C75.0566 42.5599 75.3027 43.5332 75.7518 44.3733C76.1439 45.1272 76.6466 45.8183 77.243 46.4237C77.564 46.7719 77.9703 47.0304 78.4217 47.1735C78.8839 47.2924 79.0811 46.5778 78.6187 46.4589C78.2208 46.3565 77.8466 46.0009 77.5503 45.673C77.2114 45.2913 76.9088 44.8788 76.6463 44.4409C76.0856 43.5263 75.8018 42.4812 75.5345 41.4459C75.4156 40.9844 74.7006 41.18 74.8198 41.643H74.8203Z" fill="#211715"/>
<path d="M74.8489 41.2208C74.2515 42.0432 73.4754 42.7194 72.5789 43.1986C72.127 43.4493 71.6544 43.6608 71.1664 43.8309C71.0414 43.8747 70.9157 43.9159 70.7893 43.9545C70.6504 43.9855 70.5134 44.0248 70.3792 44.0723C70.3174 44.1001 70.3759 44.0698 70.3988 44.0754C70.4272 44.0792 70.455 44.0863 70.4817 44.0965C70.5276 44.1226 70.5678 44.1576 70.6 44.1994C70.5719 44.1668 70.6108 44.1994 70.6 44.2031C70.5614 44.2173 70.6488 44.2252 70.6034 44.2C70.5951 44.1955 70.6012 44.1425 70.6009 44.192C70.6009 44.2326 70.6009 44.1084 70.6009 44.089C70.6116 43.6628 70.7484 43.2132 70.8134 42.7708C70.8323 42.6921 70.8261 42.6093 70.7957 42.5342C70.7652 42.4592 70.712 42.3955 70.6435 42.3522C70.5724 42.3122 70.4903 42.2963 70.4093 42.3068C70.3284 42.3172 70.253 42.3535 70.1943 42.4103C68.6435 43.9186 66.8102 45.1057 65.222 46.5728C64.8709 46.8971 65.396 47.4203 65.7461 47.0969C67.3342 45.6299 69.1673 44.4429 70.7184 42.9344L70.0992 42.5746C70.0269 43.0664 69.8857 43.5533 69.8617 44.0514C69.8363 44.2544 69.8861 44.4597 70.0018 44.6284C70.1974 44.8663 70.4581 44.8226 70.7237 44.7479C71.9318 44.4215 73.0647 43.8629 74.0592 43.1033C74.6084 42.6749 75.0903 42.1667 75.4891 41.5957C75.5379 41.5106 75.5513 41.4098 75.5264 41.3149C75.5015 41.2201 75.4404 41.1388 75.3561 41.0886C75.2708 41.041 75.1704 41.0282 75.0759 41.053C74.9814 41.0778 74.9001 41.1382 74.8492 41.2215L74.8489 41.2208Z" fill="#211715"/>
<path d="M64.4192 50.1886C64.0113 51.2799 64.2245 52.4517 64.589 53.5223C64.7546 54.0091 64.9927 54.5468 64.8919 55.0723C64.8644 55.2705 64.7721 55.4541 64.6293 55.5944C64.5199 55.691 64.3977 55.7404 64.3503 55.8929C64.3336 55.9459 64.3258 56.0014 64.3271 56.057C64.3437 56.6291 65.1289 56.7318 65.5551 56.7792C66.2238 56.8495 66.8996 56.8024 67.5521 56.6402C68.2607 56.4651 69.0017 56.1052 69.2638 55.3762C69.289 55.2814 69.276 55.1805 69.2276 55.0953C69.1792 55.01 69.0993 54.9471 69.005 54.9202C68.9103 54.896 68.8099 54.9095 68.7249 54.9578C68.6399 55.006 68.5768 55.0853 68.549 55.179C68.5272 55.2398 68.5782 55.1354 68.5366 55.2099C68.5204 55.239 68.5058 55.2688 68.4881 55.2974C68.4778 55.3139 68.4062 55.4078 68.4622 55.3397C68.4372 55.3706 68.4112 55.3993 68.3838 55.4274C68.3592 55.4526 68.3333 55.4761 68.3066 55.4997C68.2883 55.5151 68.2161 55.5704 68.2735 55.5286C68.2086 55.5759 68.141 55.6193 68.0711 55.6586C67.9976 55.6999 67.9221 55.7373 67.8448 55.7709C67.9029 55.7455 67.8047 55.7863 67.7879 55.7926C67.7432 55.8095 67.6984 55.8252 67.6532 55.8402C67.4835 55.8957 67.3105 55.9406 67.1353 55.9745C66.9707 56.0092 66.8039 56.0327 66.6362 56.0448C66.4537 56.0606 66.2707 56.068 66.0874 56.0672C65.9249 56.0672 65.7631 56.059 65.6009 56.0428C65.565 56.0392 65.5293 56.0352 65.4929 56.0307C65.5841 56.042 65.4817 56.0287 65.4606 56.025C65.3902 56.0127 65.3199 55.9999 65.2504 55.9826C65.1905 55.9671 65.1332 55.9458 65.0738 55.9296C65.0003 55.9095 65.138 55.9724 65.063 55.9248C65.0439 55.9122 65.0239 55.9011 65.0032 55.8915C64.9331 55.8617 65.044 55.9279 65.0186 55.9046C64.9646 55.8533 65.0552 55.9634 65.0367 55.9316C65.0488 55.9554 65.0567 55.9812 65.0599 56.0077C65.0616 56.0216 65.042 56.1497 65.063 56.09L64.8931 56.3115C65.1047 56.1756 65.2818 55.9924 65.4106 55.7765C65.5394 55.5605 65.6164 55.3176 65.6354 55.0669C65.7026 54.5125 65.5254 53.9825 65.3494 53.4644C65.0081 52.4593 64.7472 51.4173 65.1332 50.3858C65.1585 50.291 65.1456 50.1901 65.0972 50.1048C65.0487 50.0195 64.9687 49.9566 64.8744 49.9298C64.7797 49.9058 64.6794 49.9193 64.5944 49.9676C64.5094 50.0158 64.4464 50.095 64.4184 50.1886H64.4192Z" fill="#211715"/>
<path d="M78.7492 47.1809C78.8118 47.1302 78.8844 47.0932 78.9622 47.0723C79.04 47.0515 79.1214 47.0473 79.2009 47.0599C79.2805 47.0726 79.3565 47.1019 79.424 47.1459C79.4915 47.1899 79.549 47.2476 79.5927 47.3153C79.6719 47.5052 79.7054 47.7112 79.6903 47.9164C79.6948 48.1431 79.6761 48.3696 79.6345 48.5925C79.4801 49.3955 79.0587 50.3465 78.1663 50.5047C78.072 50.5315 77.992 50.5944 77.9436 50.6796C77.8952 50.7649 77.8822 50.8658 77.9075 50.9605C77.9355 51.0541 77.9985 51.1333 78.0835 51.1816C78.1684 51.2298 78.2688 51.2434 78.3635 51.2195C79.6654 50.9879 80.2911 49.5335 80.4119 48.3558C80.4729 47.7602 80.4546 47.0216 79.9511 46.6127C79.704 46.416 79.3956 46.3126 79.08 46.3207C78.7643 46.3288 78.4616 46.4478 78.225 46.6568C78.1562 46.7267 78.1177 46.8208 78.1177 46.9189C78.1177 47.0169 78.1562 47.111 78.225 47.1809C78.2955 47.2488 78.3896 47.2867 78.4875 47.2867C78.5854 47.2867 78.6795 47.2488 78.75 47.1809H78.7492Z" fill="#211715"/>
<path d="M77.8843 50.1446C77.8677 50.4199 77.8158 50.692 77.7299 50.954C77.701 51.0496 77.6697 51.1443 77.6372 51.239C77.6269 51.2698 77.6155 51.3007 77.6064 51.3316C77.5834 51.4029 77.6144 51.3162 77.6088 51.3279C77.4832 51.5997 77.3395 51.8628 77.1786 52.1154C76.7316 52.8548 76.1622 53.5127 75.4947 54.0611C75.1298 54.3626 74.7026 54.5795 74.2439 54.696C73.7794 54.8041 73.9759 55.5186 74.4409 55.4106C75.4103 55.1858 76.2249 54.4955 76.8676 53.765C77.4181 53.1614 77.877 52.4804 78.2298 51.7436C78.4621 51.2404 78.5964 50.6975 78.6254 50.144C78.6428 49.667 77.9016 49.6676 77.8842 50.144L77.8843 50.1446Z" fill="#211715"/>
<path d="M65.8144 46.6568C65.5777 46.4478 65.275 46.3289 64.9594 46.3208C64.6438 46.3127 64.3354 46.416 64.0884 46.6127C63.585 47.0214 63.5665 47.7603 63.6276 48.3558C63.7484 49.5337 64.3741 50.9886 65.676 51.2195C65.7707 51.2428 65.8708 51.229 65.9556 51.1808C66.0404 51.1327 66.1036 51.0538 66.132 50.9605C66.1572 50.8658 66.1442 50.7649 66.0958 50.6796C66.0473 50.5944 65.9674 50.5315 65.873 50.5047C64.9808 50.3465 64.5605 49.3958 64.405 48.5925C64.3655 48.3807 64.3467 48.1656 64.3489 47.9502C64.3303 47.7338 64.3639 47.5161 64.4468 47.3153C64.4905 47.2476 64.548 47.1899 64.6155 47.1459C64.683 47.102 64.759 47.0727 64.8386 47.06C64.9181 47.0473 64.9995 47.0516 65.0773 47.0724C65.1551 47.0932 65.2277 47.1302 65.2903 47.1809C65.361 47.2481 65.4548 47.2855 65.5523 47.2855C65.6498 47.2855 65.7436 47.2481 65.8144 47.1809C65.8832 47.111 65.9217 47.0169 65.9217 46.9189C65.9217 46.8208 65.8832 46.7267 65.8144 46.6568Z" fill="#211715"/>
<path d="M65.4559 50.0734C65.8111 52.1139 66.9197 54.1116 68.8078 55.0997C69.3302 55.3727 69.8999 55.5435 70.4863 55.6028C70.5844 55.6022 70.6784 55.563 70.7477 55.4936C70.8171 55.4243 70.8563 55.3303 70.857 55.2322C70.8548 55.1346 70.815 55.0416 70.746 54.9726C70.6769 54.9036 70.5839 54.8638 70.4863 54.8616C69.288 54.7355 68.2831 53.978 67.5326 53.0771C66.775 52.1679 66.3712 51.0294 66.1708 49.8763C66.1439 49.782 66.0811 49.7019 65.9958 49.6535C65.9105 49.6051 65.8095 49.5922 65.7148 49.6175C65.6212 49.6455 65.542 49.7085 65.4938 49.7935C65.4456 49.8784 65.432 49.9787 65.4559 50.0734Z" fill="#211715"/>
<path d="M70.8182 52.1633C71.2098 52.366 71.6459 52.4673 72.0868 52.4579C72.5474 52.4766 73.0011 52.3414 73.3763 52.0736C73.4458 52.0041 73.4849 51.9098 73.4849 51.8115C73.4849 51.7132 73.4458 51.619 73.3763 51.5495C73.3054 51.4827 73.2117 51.4454 73.1143 51.4454C73.0168 51.4454 72.9231 51.4827 72.8522 51.5495C72.9671 51.4599 72.888 51.5214 72.8586 51.5402C72.8335 51.5563 72.8078 51.5711 72.7813 51.5848C72.7466 51.6031 72.6612 51.623 72.7645 51.5964C72.7287 51.6055 72.6936 51.6236 72.6583 51.635C72.5611 51.6651 72.4618 51.6878 72.3612 51.7028C72.4164 51.694 72.38 51.7002 72.3457 51.7036C72.3165 51.7064 72.2874 51.7088 72.2582 51.7107C72.1879 51.7153 72.1175 51.717 72.0469 51.7167C71.9839 51.7167 71.9209 51.7144 71.8579 51.7099C71.829 51.7079 71.8002 51.7056 71.7713 51.7027C71.7585 51.7014 71.6527 51.6829 71.7421 51.6999C71.6484 51.6841 71.5557 51.6635 71.4641 51.6381C71.4252 51.6264 71.3869 51.6125 71.3489 51.5994C71.2586 51.5685 71.4149 51.6321 71.3335 51.5935C71.2859 51.5711 71.2389 51.5477 71.1924 51.5231C71.1075 51.4735 71.0064 51.4596 70.9113 51.4846C70.8162 51.5095 70.7349 51.5712 70.6853 51.6561C70.6357 51.741 70.6219 51.8421 70.6468 51.9372C70.6718 52.0323 70.7335 52.1135 70.8184 52.1631L70.8182 52.1633Z" fill="#211715"/>
<path d="M71.8769 49.2025C71.9342 49.4095 71.9801 49.6195 72.0143 49.8316L72.0012 49.733C72.0052 49.7618 72.006 49.7909 72.0035 49.8198L72.0168 49.7213C72.0148 49.7346 72.0116 49.7477 72.0072 49.7604L72.0446 49.6717C72.0407 49.6805 72.0361 49.6889 72.0307 49.6969L72.0888 49.6219C72.0827 49.6293 72.0758 49.6361 72.0682 49.6421L72.1431 49.5842C72.1272 49.5941 72.1106 49.603 72.0934 49.6106L72.1819 49.5732C72.1549 49.5847 72.1267 49.5929 72.0979 49.5978L72.1964 49.5845C72.1702 49.5876 72.1438 49.5876 72.1176 49.5845L72.2162 49.5978C72.1865 49.5936 72.1573 49.5863 72.1275 49.5823C72.0797 49.567 72.0287 49.5647 71.9797 49.5757C71.9307 49.5779 71.8832 49.5931 71.842 49.6197C71.8 49.6443 71.7632 49.6769 71.7337 49.7156C71.7043 49.7544 71.6828 49.7986 71.6705 49.8457C71.6581 49.8928 71.6552 49.9419 71.6618 49.9901C71.6684 50.0383 71.6845 50.0848 71.709 50.1268C71.7326 50.1686 71.7643 50.2052 71.8024 50.2344C71.8404 50.2636 71.884 50.2848 71.9305 50.2967C72.0024 50.3062 72.0722 50.3245 72.1454 50.3276C72.2574 50.3281 72.3679 50.3017 72.4674 50.2503C72.5312 50.2208 72.5877 50.1775 72.6327 50.1235C72.6778 50.0695 72.7103 50.0062 72.7279 49.9381C72.751 49.8289 72.7499 49.7161 72.7248 49.6073C72.6905 49.4047 72.6438 49.204 72.5917 49.0051C72.5788 48.9582 72.5567 48.9142 72.5268 48.8758C72.4969 48.8374 72.4597 48.8052 72.4173 48.7812C72.375 48.7572 72.3283 48.7417 72.28 48.7357C72.2317 48.7297 72.1826 48.7333 72.1357 48.7463C72.042 48.774 71.9626 48.837 71.9144 48.922C71.8661 49.007 71.8527 49.1074 71.8769 49.2021V49.2025Z" fill="#211715"/>
<path d="M68.5976 47.4079C68.4925 47.7492 68.561 48.5352 69.2076 48.6013C70.0623 48.5962 70.1079 47.6468 69.82 47.2004C69.5845 46.8357 68.8918 46.6836 68.5976 47.4079Z" fill="#211715"/>
<path d="M75.4419 47.4079C75.547 47.7492 75.4784 48.5352 74.8319 48.6013C73.9772 48.596 73.9316 47.6468 74.2193 47.2004C74.4549 46.8357 75.1475 46.6836 75.4419 47.4079Z" fill="#211715"/>
<path d="M74.0408 51.2017C74.1271 51.2692 74.2049 51.347 74.2724 51.4334L74.2145 51.3585C74.2859 51.4514 74.3452 51.553 74.3909 51.661L74.3535 51.5725C74.3804 51.6376 74.4022 51.7047 74.4187 51.7732C74.4448 51.868 74.5075 51.9485 74.593 51.9971C74.6785 52.0456 74.7797 52.0582 74.8745 52.0321C74.9693 52.0059 75.0498 51.9432 75.0983 51.8577C75.1469 51.7722 75.1594 51.671 75.1333 51.5762C75.0464 51.2233 74.8472 50.9082 74.5657 50.6784C74.4937 50.6125 74.4007 50.5742 74.3032 50.5703C74.2049 50.5708 74.1108 50.6096 74.0406 50.6784C73.9715 50.7483 73.9326 50.8426 73.9325 50.9409C73.9317 50.9897 73.9409 51.0382 73.9595 51.0834C73.978 51.1285 74.0057 51.1694 74.0406 51.2034L74.0408 51.2017Z" fill="#211715"/>
<path d="M45.0708 53.6335C44.9548 53.5824 44.5244 53.4126 44.4732 53.394C43.6984 53.1142 43.729 52.6162 43.6314 52.0591C43.5202 51.4413 43.4625 50.8151 43.4589 50.1875C44.9923 49.2889 46.1849 47.275 46.4084 46.6698C46.445 46.5588 46.5195 46.3494 46.5859 46.1009L46.7249 46.0794C47.0216 46.0299 47.3003 45.9043 47.5339 45.7149C47.8215 45.4702 48.053 45.1665 48.2126 44.8243C48.5508 44.1471 48.6965 43.39 48.6336 42.6357C48.6248 42.4429 48.5756 42.2541 48.4893 42.0815C48.4147 41.9564 48.3131 41.8497 48.1918 41.7691C48.0705 41.6885 47.9328 41.6361 47.7886 41.6158C47.6417 41.5942 47.4919 41.6047 47.3494 41.6464C47.2069 41.688 47.075 41.76 46.9629 41.8573C46.9629 41.8573 48.3913 34.7964 39.7437 34.7964C31.8512 34.7964 33.1117 41.8567 33.1117 41.8567C32.9996 41.7594 32.8677 41.6874 32.7252 41.6457C32.5827 41.6041 32.4329 41.5936 32.286 41.6152C32.1419 41.6354 32.0041 41.6878 31.8829 41.7683C31.7617 41.8488 31.66 41.9555 31.5854 42.0804C31.4989 42.253 31.4498 42.4418 31.4412 42.6346C31.3781 43.389 31.5238 44.1461 31.8621 44.8232C32.0216 45.1654 32.253 45.4692 32.5406 45.7138C32.7743 45.9032 33.053 46.0288 33.3497 46.0784L33.6134 46.119C33.8705 47.0742 34.3265 47.9642 34.9516 48.7308C35.3976 49.2791 35.9314 49.7495 36.5315 50.1228C36.5317 50.7719 36.4739 51.4198 36.3587 52.0586C36.2611 52.6157 36.2917 53.1138 35.5171 53.3936C35.3578 53.4495 35.2017 53.5141 35.0495 53.5872C34.8024 53.7382 34.9396 57.101 39.5379 57.101C44.1362 57.101 45.0708 53.6335 45.0708 53.6335Z" fill="white"/>
<path d="M33.1117 41.8567C32.9995 41.7594 32.8677 41.6874 32.7252 41.6458C32.5827 41.6041 32.4329 41.5936 32.286 41.6152C32.2434 41.6215 32.2012 41.6307 32.1597 41.6425C31.4991 38.7325 31.818 36.1947 33.1242 33.9799C33.9735 32.5388 35.4972 31.3246 36.9427 31.1572C37.3272 31.0997 37.7065 31.0116 38.0769 30.8938C39.791 30.0948 42.6177 30.4816 44.0111 31.8865L44.002 31.8736C44.199 32.0586 44.4213 32.2146 44.6623 32.3368C44.8154 32.4109 44.9722 32.4773 45.1319 32.5357C46.5274 33.1071 47.3891 34.4297 47.827 36.1833C48.2705 37.9591 48.2242 40.1763 47.8332 41.4811C47.8332 41.4811 47.8124 41.5347 47.7813 41.6139C47.6353 41.5935 47.4866 41.6045 47.3453 41.6463C47.2039 41.6881 47.0731 41.7598 46.9618 41.8564L46.0722 40.8681C45.4746 40.3306 45.8521 38.4367 45.4082 37.6452C44.8777 36.7006 44.4455 36.5456 43.3132 36.2596C42.9682 36.1725 40.4621 35.8117 39.0436 35.88C37.9472 35.933 36.9534 36.2139 35.8865 36.6167C34.3548 37.196 33.8301 39.6841 33.8185 40.8245L33.1117 41.8567Z" fill="#BDBDBD"/>
<path d="M25.3706 79.2465C25.6794 72.8941 25.9895 66.1618 26.2987 60.0122C26.3703 58.5858 26.7327 57.3898 28.1446 56.2628C28.4776 56.0011 28.8329 55.7691 29.2064 55.5695C31.1516 54.4971 33.1888 53.6011 35.2938 52.8922C35.5617 52.3408 35.9257 51.8417 36.3687 51.4181C37.2322 52.2815 38.2419 52.9851 39.3509 53.4962C39.4127 53.5242 39.4814 53.558 39.5013 53.6232C39.5111 53.6817 39.4988 53.7417 39.4669 53.7917H40.5531C40.521 53.7417 40.5088 53.6817 40.5186 53.6232C40.5385 53.5585 40.6073 53.5242 40.669 53.4962C41.778 52.9851 42.7876 52.2815 43.651 51.4181C44.0758 51.8232 44.4276 52.2986 44.6907 52.8233C46.8673 53.5441 48.973 54.4635 50.9812 55.57C51.3547 55.7696 51.71 56.0016 52.043 56.2633C53.4549 57.3906 53.8173 58.5863 53.8889 60.0126C54.1993 66.1894 54.5103 72.8953 54.821 79.2722" fill="white"/>
<path d="M36.1596 50.3265C36.1527 50.7496 36.1196 51.1719 36.0605 51.5909C36.0243 51.9029 35.9724 52.2129 35.905 52.5197C35.8981 52.5477 35.8906 52.5756 35.882 52.6031C35.8795 52.6111 35.8499 52.6968 35.8666 52.6554C35.8832 52.6141 35.8468 52.6967 35.8426 52.7046C35.8264 52.7352 35.8084 52.7649 35.7887 52.7935C35.8179 52.7512 35.7829 52.8011 35.768 52.8167C35.7466 52.8399 35.7239 52.8621 35.7002 52.8831C35.6517 52.921 35.5992 52.9538 35.5438 52.9808C35.3276 53.0934 35.087 53.1715 34.863 53.2671C34.7786 53.3171 34.7173 53.3984 34.6924 53.4933C34.6675 53.5882 34.681 53.6891 34.73 53.7741C34.7814 53.857 34.8627 53.9171 34.957 53.9418C35.0514 53.9666 35.1517 53.9541 35.2371 53.907C35.2697 53.8933 35.2943 53.8829 35.2467 53.9029L35.3463 53.8612C35.4113 53.834 35.4763 53.8068 35.5417 53.7804C35.6921 53.727 35.8383 53.6627 35.9793 53.5878C36.2825 53.4102 36.5056 53.1227 36.6024 52.7849C36.6812 52.4675 36.7377 52.1451 36.7715 51.8199C36.8464 51.3257 36.8899 50.8274 36.9016 50.3277C36.9109 49.8506 36.1697 49.8506 36.1604 50.3277L36.1596 50.3265Z" fill="#211715"/>
<path d="M43.0893 50.3265C43.1017 50.8541 43.1494 51.3803 43.2319 51.9015C43.2621 52.2278 43.3235 52.5503 43.4154 52.8648C43.4773 53.0377 43.5732 53.1964 43.6974 53.3317C43.8216 53.4669 43.9716 53.576 44.1385 53.6524C44.27 53.7141 44.4082 53.7622 44.5433 53.8154C44.6153 53.844 44.6874 53.8728 44.7595 53.9016C44.7934 53.9152 44.8273 53.9292 44.8612 53.9428C44.9522 53.9793 44.8398 53.9329 44.8839 53.9521C44.9695 53.9986 45.0696 54.0107 45.1638 53.986C45.258 53.9613 45.3393 53.9016 45.391 53.8191C45.4399 53.7341 45.4534 53.6332 45.4285 53.5383C45.4037 53.4434 45.3424 53.3621 45.2581 53.312C45.0317 53.214 44.8012 53.1267 44.572 53.0351C44.4459 52.9926 44.331 52.9223 44.2357 52.8295C44.2297 52.8233 44.1719 52.7522 44.1946 52.7831C44.2124 52.8074 44.1637 52.7297 44.1569 52.7183C44.1428 52.6932 44.13 52.6675 44.1186 52.6411C44.1483 52.7102 44.1101 52.6066 44.1084 52.6012C44.0329 52.3061 43.979 52.0059 43.9471 51.703C43.8777 51.2466 43.8388 50.7861 43.8308 50.3246C43.8215 49.8482 43.0801 49.8467 43.0896 50.3246L43.0893 50.3265Z" fill="#211715"/>
<path d="M30.0608 79.3295C30.0824 78.5909 30.088 77.8144 30.088 76.881C30.088 75.8253 30.0159 66.3247 29.8238 65.2921C29.0123 60.932 28.3892 59.2801 28.1459 56.2628C28.4788 56.0011 28.8341 55.7691 29.2076 55.5695C31.1525 54.4974 33.1894 53.6014 35.294 52.8925C35.562 52.341 35.9261 51.8418 36.3692 51.4181C37.2327 52.2815 38.2423 52.9851 39.3514 53.4962C39.4131 53.5242 39.4818 53.558 39.5018 53.6232C39.5115 53.6817 39.4993 53.7417 39.4673 53.7917H40.5535C40.5215 53.7417 40.5092 53.6817 40.5191 53.6232C40.539 53.5585 40.6077 53.5242 40.6695 53.4962C41.7785 52.9851 42.7881 52.2815 43.6515 51.4181C44.0762 51.8229 44.4278 52.298 44.6909 52.8224C46.8678 53.5433 48.9739 54.4629 50.9824 55.5695C51.3626 55.7725 51.7238 56.0093 52.0617 56.2769C51.8172 59.2852 51.1948 60.9387 50.3845 65.2921C50.1924 66.3247 50.1203 75.8253 50.1203 76.881C50.1203 77.8341 50.1262 78.6237 50.1489 79.3763L30.0608 79.3295Z" fill="#3F88C9"/>
<path d="M51.6911 56.2629C51.5563 57.9165 51.2233 59.5309 50.8623 61.1597C50.6341 62.1895 50.4097 63.22 50.206 64.2549C50.0873 64.7909 50.0039 65.3341 49.9563 65.8811C49.8819 67.0485 49.8637 68.2205 49.8397 69.3897C49.8089 70.8612 49.7866 72.3328 49.7729 73.8044C49.7622 74.7826 49.7522 75.7609 49.7492 76.7384C49.7492 76.7856 49.7492 76.8329 49.7492 76.8803C49.7492 77.3571 50.4905 77.3579 50.4905 76.8803C50.4905 76.0172 50.5007 75.1542 50.5093 74.2913C50.5239 72.8373 50.5445 71.3834 50.5711 69.9297C50.5948 68.6803 50.6174 67.4296 50.6813 66.1816C50.6911 65.9943 50.7017 65.807 50.7173 65.6201C50.7227 65.5548 50.7297 65.4896 50.7363 65.4245C50.7462 65.3256 50.7219 65.4929 50.7343 65.4363C50.7487 65.3715 50.7579 65.3051 50.7701 65.2398C50.9786 64.1298 51.2096 63.0245 51.4528 61.9217C51.8182 60.2642 52.194 58.6114 52.3721 56.9208C52.3952 56.7016 52.4158 56.482 52.4338 56.2621C52.4331 56.164 52.3938 56.0702 52.3244 56.0009C52.2551 55.9315 52.1613 55.8922 52.0632 55.8915C51.9655 55.8934 51.8724 55.9331 51.8033 56.0022C51.7342 56.0713 51.6946 56.1644 51.6926 56.2621L51.6911 56.2629Z" fill="#211715"/>
<path d="M35.5355 52.419C33.6359 53.0511 31.786 53.8236 30.0011 54.7301C29.0707 55.2078 28.1397 55.6933 27.3901 56.438C26.7687 57.0467 26.3268 57.8146 26.1126 58.6577C25.8836 59.5804 25.901 60.558 25.8543 61.5017C25.7995 62.6104 25.7452 63.7193 25.6913 64.8282C25.5814 67.0978 25.4727 69.3672 25.3654 71.6365C25.2448 74.1733 25.123 76.7099 25 79.2464C24.9768 79.7233 25.7182 79.7221 25.7412 79.2464C25.9574 74.8072 26.17 70.3677 26.379 65.928C26.4316 64.8352 26.4847 63.7424 26.5383 62.6497C26.5884 61.6293 26.5986 60.597 26.7014 59.5804C26.7639 58.8203 27.0296 58.091 27.4707 57.4689C28.0521 56.6745 28.8914 56.1563 29.7447 55.7004C31.6667 54.6819 33.6693 53.8234 35.7322 53.1337C36.1817 52.9817 35.9889 52.2655 35.5352 52.419H35.5355Z" fill="#211715"/>
<path d="M44.456 53.1337C46.2546 53.7314 48.0073 54.4595 49.7 55.3121C50.5521 55.7465 51.4295 56.174 52.1367 56.83C52.7232 57.3572 53.1442 58.0432 53.3485 58.8049C53.575 59.6774 53.5492 60.6088 53.5935 61.5029C53.6474 62.5765 53.701 63.65 53.7544 64.7235C53.865 66.9407 53.9749 69.1579 54.084 71.3752C54.2069 73.8722 54.3292 76.3691 54.4509 78.8661C54.474 79.3409 55.2153 79.3437 55.1921 78.8661C54.971 74.3272 54.7476 69.7884 54.5219 65.2498C54.466 64.1253 54.4099 63.0008 54.3534 61.8763C54.3051 60.9095 54.3184 59.9152 54.1414 58.961C53.9904 58.1439 53.6268 57.3809 53.087 56.7491C52.4277 55.9736 51.5625 55.4541 50.6736 54.9836C48.7389 53.9684 46.7255 53.1108 44.6531 52.419C44.2002 52.2658 44.0059 52.9814 44.456 53.1337Z" fill="#211715"/>
<path d="M27.7745 56.2628C27.9223 58.0739 28.2938 59.8394 28.6856 61.6101C28.942 62.7683 29.1887 63.9275 29.4093 65.0926C29.4295 65.1993 29.4489 65.3062 29.4692 65.4129C29.4888 65.5154 29.4635 65.3468 29.4692 65.4062C29.4754 65.4749 29.4839 65.5435 29.4898 65.6122C29.5068 65.8145 29.518 66.0174 29.5284 66.2202C29.5971 67.5751 29.6189 68.9329 29.6433 70.2893C29.6705 71.8112 29.6905 73.3331 29.7032 74.8551C29.7141 76.0595 29.7246 77.264 29.7077 78.4685C29.7036 78.7557 29.6976 79.0428 29.6894 79.3297C29.6758 79.8068 30.4171 79.8065 30.4307 79.3297C30.469 77.9896 30.4595 76.6486 30.4483 75.3083C30.4361 73.834 30.4183 72.3598 30.3947 70.8857C30.3712 69.4571 30.3473 68.0278 30.2866 66.6002C30.2699 66.2027 30.2579 65.8019 30.2094 65.4064C30.1529 64.9397 30.0443 64.4774 29.9524 64.0166C29.836 63.4332 29.7144 62.8508 29.5877 62.2693C29.2063 60.5125 28.7717 58.7447 28.581 56.9709C28.5557 56.7352 28.5336 56.4993 28.5146 56.263C28.5122 56.1655 28.4724 56.0726 28.4034 56.0036C28.3344 55.9346 28.2415 55.8948 28.144 55.8924C28.0459 55.8932 27.9521 55.9325 27.8828 56.0018C27.8135 56.0711 27.7742 56.1649 27.7734 56.263L27.7745 56.2628Z" fill="#211715"/>
<path d="M42.306 56.2644C43.302 55.2746 43.9543 54.0758 44.69 52.8783C44.4163 52.333 44.0506 51.8391 43.609 51.4181C42.7111 52.3163 41.6611 53.0483 40.5077 53.5799C40.4434 53.609 40.3718 53.6446 40.3511 53.712C40.3409 53.7728 40.3537 53.8352 40.3869 53.8871C40.5862 54.1742 40.8004 54.4508 41.0285 54.7156C41.4651 55.2491 42.0131 55.9035 42.306 56.2644Z" fill="white"/>
<path d="M37.6949 56.2273C36.7066 55.2452 36.0593 54.0554 35.3292 52.8671C35.6007 52.326 35.9636 51.8357 36.4018 51.4179C37.2929 52.3092 38.3349 53.0355 39.4795 53.563C39.5431 53.5918 39.6142 53.6272 39.6347 53.6941C39.6449 53.7544 39.6322 53.8163 39.5992 53.8678C39.4015 54.1528 39.1891 54.4272 38.9627 54.6899C38.5295 55.2199 37.9857 55.8692 37.6949 56.2273Z" fill="white"/>
<path d="M42.5681 56.5264C43.3363 55.7559 43.9316 54.8433 44.4937 53.9167C44.6302 53.6921 44.7653 53.4666 44.902 53.2421C44.9889 53.0992 45.0961 52.957 45.0473 52.7797C44.9994 52.6507 44.9359 52.528 44.858 52.4145C44.592 51.9493 44.2596 51.5252 43.8712 51.1559C43.8009 51.0879 43.707 51.05 43.6092 51.05C43.5114 51.05 43.4175 51.0879 43.3471 51.1559C42.8603 51.6454 42.3247 52.0839 41.7487 52.4646C41.4535 52.6602 41.1492 52.8408 40.836 53.0066C40.5651 53.1494 40.131 53.2561 40.0126 53.5687C39.9057 53.851 40.0676 54.0923 40.2316 54.3063C40.4368 54.5743 40.6505 54.8359 40.8647 55.0967C41.2566 55.5743 41.6544 56.0471 42.0441 56.5264C42.114 56.5953 42.2081 56.6339 42.3062 56.6339C42.4043 56.6339 42.4982 56.5953 42.5681 56.5264C42.6356 56.4559 42.6734 56.362 42.6734 56.2644C42.6734 56.1668 42.6357 56.0729 42.5682 56.0023C42.2321 55.589 41.8897 55.1807 41.5508 54.7696C41.361 54.5394 41.1715 54.3088 40.9854 54.0747C40.9204 53.9933 40.8551 53.9123 40.7938 53.8276C40.7738 53.8025 40.7552 53.7762 40.7381 53.749C40.7175 53.714 40.7226 53.6973 40.7226 53.7103L40.6721 53.8973C40.632 53.9311 40.6398 53.9314 40.6956 53.8982C40.7337 53.8809 40.7719 53.8633 40.8097 53.8456C40.8866 53.8094 40.9629 53.7723 41.0387 53.7341C41.1743 53.6659 41.3081 53.5947 41.4402 53.5203C41.732 53.3568 42.0157 53.1799 42.2914 52.9899C42.8575 52.6027 43.3866 52.1638 43.8717 51.6789H43.3476C43.7644 52.0795 44.1103 52.5479 44.3705 53.0642V52.69C43.6642 53.8417 43.0062 55.0372 42.0444 56.0011C41.7069 56.3405 42.2307 56.8648 42.5681 56.5264Z" fill="#211715"/>
<path d="M37.9569 55.9653C37.0028 55.0079 36.35 53.8229 35.6491 52.6801V53.0542C35.9074 52.5421 36.2505 52.0774 36.6638 51.6798H36.1397C36.6213 52.1616 37.1466 52.5977 37.7088 52.9825C37.9778 53.1678 38.2548 53.3407 38.5397 53.5012C38.6736 53.5764 38.8088 53.6484 38.9455 53.7174C39.0221 53.756 39.0993 53.7936 39.1772 53.8301C39.2155 53.8481 39.2539 53.8659 39.2925 53.8834C39.3482 53.9165 39.3556 53.9159 39.3148 53.8815L39.2641 53.6945C39.2812 53.6765 39.2838 53.6765 39.272 53.6945C39.2647 53.7072 39.2565 53.7194 39.2488 53.7314C39.2334 53.7586 39.2121 53.7839 39.1934 53.8087C39.1325 53.8919 39.068 53.9722 39.0038 54.0528C38.8232 54.279 38.6395 54.5025 38.4556 54.7258C38.1149 55.1391 37.7707 55.5494 37.4328 55.9648C37.3659 56.0357 37.3286 56.1294 37.3286 56.2269C37.3286 56.3243 37.3659 56.4181 37.4328 56.4889C37.5027 56.5578 37.5968 56.5964 37.6949 56.5964C37.793 56.5964 37.8871 56.5578 37.9569 56.4889C38.3496 56.0062 38.7504 55.5303 39.1449 55.0491C39.3515 54.7969 39.5577 54.5442 39.7561 54.2853C39.9193 54.0721 40.0804 53.8318 39.9735 53.5508C39.8548 53.2376 39.4176 53.1303 39.146 52.9867C38.8498 52.83 38.5616 52.6594 38.2812 52.4748C37.6978 52.0922 37.1557 51.65 36.6637 51.1554C36.5933 51.0876 36.4994 51.0497 36.4016 51.0497C36.3039 51.0497 36.2099 51.0876 36.1396 51.1554C35.749 51.5271 35.4154 51.9543 35.1494 52.4233C35.0645 52.5424 35.002 52.6759 34.965 52.8174C34.964 52.9684 35.0177 53.1147 35.1162 53.2291C35.2577 53.4615 35.3976 53.695 35.5389 53.9276C36.0915 54.8365 36.6783 55.7324 37.4328 56.4889C37.7707 56.8276 38.2944 56.3036 37.9569 55.9653Z" fill="#211715"/>
<path d="M47.2239 42.1187C47.2921 42.0633 47.3709 42.0224 47.4556 41.9986C47.5402 41.9748 47.6288 41.9685 47.7159 41.9803C47.8031 41.992 47.8869 42.0215 47.9622 42.0669C48.0375 42.1122 48.1027 42.1726 48.1538 42.2441C48.2735 42.4294 48.2722 42.6942 48.2761 42.9072C48.2819 43.1467 48.2638 43.3862 48.2222 43.6221C48.0613 44.4996 47.6005 45.5502 46.6253 45.7223C46.531 45.7491 46.4511 45.812 46.4026 45.8972C46.3542 45.9825 46.3413 46.0834 46.3665 46.1781C46.3945 46.2717 46.4575 46.3509 46.5424 46.3991C46.6274 46.4474 46.7276 46.461 46.8224 46.4371C48.2081 46.1937 48.8734 44.6361 48.998 43.384C49.0598 42.7694 49.0465 41.9913 48.5304 41.5633C48.2711 41.3504 47.9446 41.2367 47.6092 41.2426C47.2738 41.2485 46.9514 41.3735 46.6998 41.5954C46.631 41.6653 46.5925 41.7594 46.5925 41.8574C46.5925 41.9555 46.631 42.0496 46.6998 42.1195C46.7702 42.1871 46.8641 42.2249 46.9618 42.2249C47.0595 42.2249 47.1534 42.1871 47.2239 42.1195V42.1187Z" fill="#211715"/>
<path d="M46.3426 45.3106C46.3253 45.6032 46.2706 45.8925 46.18 46.1713C46.1491 46.2748 46.1153 46.3773 46.081 46.4802C46.0699 46.5134 46.0589 46.5467 46.0472 46.5796C46.0427 46.5927 46.0072 46.6775 46.0317 46.6187C46.0563 46.5598 46.0194 46.6452 46.0129 46.659C45.9975 46.6899 45.9832 46.722 45.9678 46.7533C45.9348 46.821 45.9 46.8877 45.8642 46.9541C45.7803 47.1096 45.6906 47.262 45.597 47.4119C45.1135 48.2177 44.4949 48.9341 43.7682 49.53C43.376 49.8531 42.9173 50.0856 42.4248 50.2108C41.9603 50.3189 42.1569 51.0331 42.6218 50.9255C43.6603 50.6852 44.5317 49.9424 45.2184 49.159C45.8017 48.517 46.2883 47.7935 46.663 47.0112C46.9103 46.4766 47.0529 45.8996 47.0832 45.3113C47.1 44.8343 46.3588 44.835 46.342 45.3113L46.3426 45.3106Z" fill="#211715"/>
<path d="M33.3739 41.5946C33.1223 41.3727 32.7999 41.2476 32.4645 41.2417C32.1291 41.2358 31.8025 41.3496 31.5432 41.5625C31.027 41.9913 31.0144 42.7679 31.0757 43.3833C31.2003 44.6353 31.8654 46.1937 33.2511 46.4363C33.3458 46.4597 33.4459 46.4459 33.5307 46.3977C33.6156 46.3495 33.6787 46.2707 33.7071 46.1774C33.7324 46.0826 33.7194 45.9817 33.671 45.8964C33.6225 45.8112 33.5425 45.7483 33.4482 45.7215C32.4722 45.5501 32.0136 44.4997 31.8515 43.6222C31.8096 43.3862 31.7915 43.1467 31.7974 42.9072C31.783 42.6886 31.8201 42.4696 31.9055 42.2679C31.9544 42.192 32.0187 42.1273 32.0943 42.0781C32.17 42.0288 32.2551 41.996 32.3443 41.9819C32.4334 41.9679 32.5245 41.9728 32.6116 41.9963C32.6988 42.0199 32.7799 42.0616 32.8498 42.1187C32.9206 42.1861 33.0146 42.2237 33.1123 42.2237C33.2101 42.2237 33.304 42.1861 33.3748 42.1187C33.4435 42.0488 33.482 41.9547 33.482 41.8567C33.482 41.7586 33.4435 41.6645 33.3748 41.5946H33.3739Z" fill="#211715"/>
<path d="M33.0339 45.2274C33.4125 47.4084 34.5981 49.545 36.6184 50.5978C37.1713 50.8859 37.774 51.0662 38.3943 51.129C38.4923 51.1284 38.5862 51.0891 38.6556 51.0197C38.725 50.9504 38.7642 50.8565 38.7649 50.7584C38.7627 50.6608 38.723 50.5677 38.654 50.4987C38.5849 50.4296 38.4919 50.3899 38.3943 50.3878C36.3559 50.1742 34.7638 48.3383 34.1222 46.5029C33.9575 46.023 33.8326 45.5303 33.7487 45.0299C33.7217 44.9356 33.6587 44.8557 33.5734 44.8073C33.488 44.759 33.3871 44.7461 33.2924 44.7715C33.1988 44.7995 33.1196 44.8625 33.0714 44.9475C33.0232 45.0324 33.0096 45.1327 33.0336 45.2274H33.0339Z" fill="#211715"/>
<path d="M43.74 32.1358C43.8596 32.247 43.9868 32.3497 44.1206 32.4432C44.2201 32.5162 44.3251 32.5813 44.4347 32.6379C44.5155 32.6784 44.5999 32.7127 44.683 32.7479C44.7936 32.7999 44.9075 32.8442 45.0241 32.8807C45.1189 32.9068 45.2202 32.8942 45.3057 32.8457C45.348 32.8217 45.3852 32.7895 45.4151 32.7511C45.445 32.7127 45.4671 32.6688 45.48 32.6219C45.4929 32.575 45.4965 32.526 45.4905 32.4776C45.4845 32.4293 45.469 32.3827 45.445 32.3404C45.421 32.298 45.3888 32.2609 45.3504 32.2309C45.312 32.201 45.2681 32.179 45.2212 32.166C45.135 32.1399 45.0506 32.1079 44.9687 32.0705L45.0572 32.1078C44.959 32.0663 44.8589 32.026 44.7652 31.975C44.6342 31.9021 44.5092 31.819 44.3913 31.7264L44.4662 31.7843C44.3963 31.7298 44.3285 31.6728 44.2641 31.6117C44.1944 31.5431 44.1004 31.5049 44.0027 31.5053C43.9049 31.5057 43.8112 31.5447 43.7421 31.6138C43.673 31.6829 43.634 31.7766 43.6336 31.8743C43.6332 31.9721 43.6714 32.0661 43.74 32.1358Z" fill="#211715"/>
<path d="M34.1523 40.8488C34.1766 40.1051 34.3305 39.3714 34.6073 38.6807C34.75 38.2916 34.9492 37.9256 35.1985 37.5945C35.4023 37.3233 35.6731 37.1098 35.9844 36.975C36.0777 36.9467 36.1566 36.8836 36.2048 36.7987C36.253 36.7139 36.2667 36.6138 36.2432 36.5191C36.2164 36.4248 36.1536 36.3448 36.0683 36.2964C35.983 36.2479 35.8821 36.235 35.7873 36.2603C34.8537 36.603 34.3049 37.4705 33.9443 38.3524C33.615 39.1448 33.4343 39.991 33.4111 40.8488C33.4043 41.3259 34.1455 41.3262 34.1523 40.8488Z" fill="#211715"/>
<path d="M37.7678 36.0332C37.8187 35.8356 37.8803 35.6409 37.9523 35.4499C37.9832 35.3713 37.9342 35.4891 37.9486 35.457C37.9572 35.4376 37.9657 35.4183 37.9747 35.399C37.9901 35.3653 38.0071 35.3319 38.0249 35.2992C38.0426 35.2665 38.063 35.2319 38.0842 35.1995C38.0944 35.184 38.1049 35.1686 38.1151 35.1531C38.135 35.1253 38.1727 35.0992 38.1016 35.1695C38.1506 35.121 38.1923 35.0677 38.2448 35.0222C38.2588 35.01 38.2735 34.9982 38.2879 34.9864C38.3325 34.949 38.2903 34.9876 38.2692 35.0001C38.3067 34.9777 38.3413 34.9465 38.3773 34.9215C38.4535 34.8683 38.5316 34.818 38.6117 34.7706C38.6486 34.749 38.686 34.728 38.7241 34.7089C38.755 34.6934 38.8796 34.6415 38.75 34.6934C38.8417 34.6648 38.9201 34.6046 38.9715 34.5236C39.0087 34.4599 39.0261 34.3867 39.0214 34.3131C39.0168 34.2395 38.9903 34.169 38.9454 34.1106C38.9004 34.0522 38.8391 34.0085 38.7692 33.9851C38.6993 33.9617 38.6241 33.9596 38.553 33.9792C38.3622 34.0573 38.1809 34.1567 38.0125 34.2757C37.8509 34.3784 37.7044 34.5031 37.5774 34.6463C37.3211 35.0023 37.1423 35.4079 37.0523 35.8372C37.0262 35.932 37.0388 36.0333 37.0874 36.1188C37.1359 36.2043 37.2164 36.267 37.3112 36.2931C37.406 36.3193 37.5073 36.3067 37.5928 36.2581C37.6783 36.2096 37.741 36.129 37.7672 36.0342L37.7678 36.0332Z" fill="#211715"/>
<path d="M39.3631 36.0679C39.4539 35.9467 39.5526 35.8316 39.6586 35.7234C39.7127 35.6684 39.7686 35.6153 39.8267 35.5647C39.852 35.5424 39.8779 35.5207 39.9039 35.4995C39.9151 35.4896 39.9271 35.4804 39.9397 35.4722C40.1785 35.3091 40.43 35.1655 40.6917 35.0426C40.7513 35.0117 40.6415 35.0605 40.6888 35.044C40.7127 35.0356 40.7363 35.0259 40.7603 35.0173C40.8151 34.9976 40.8704 34.9796 40.926 34.9624C41.0614 34.9206 41.1988 34.8852 41.337 34.8529C41.4131 34.8354 41.4895 34.8195 41.5662 34.8052C41.6006 34.7989 41.6349 34.7929 41.6694 34.7873C41.6848 34.7847 41.7612 34.7731 41.7117 34.7799C41.8388 34.7615 41.9675 34.755 42.0959 34.7606C42.1942 34.7606 42.2884 34.7216 42.3579 34.6521C42.4274 34.5826 42.4665 34.4883 42.4665 34.39C42.4665 34.2917 42.4274 34.1974 42.3579 34.1279C42.2884 34.0584 42.1942 34.0194 42.0959 34.0194C41.7805 34.0149 41.4659 34.0533 41.1608 34.1335C40.8714 34.1933 40.589 34.2836 40.3185 34.4027C40.03 34.5316 39.7565 34.6917 39.5028 34.8801C39.2062 35.1134 38.9439 35.3873 38.7236 35.6938C38.6747 35.7788 38.6611 35.8797 38.686 35.9746C38.7109 36.0695 38.7722 36.1508 38.8566 36.2009C38.942 36.2482 39.0423 36.2608 39.1368 36.236C39.2312 36.2113 39.3125 36.1511 39.3637 36.0679H39.3631Z" fill="#211715"/>
<path d="M43.214 36.618C43.6198 36.6895 44.0105 36.8294 44.3694 37.0318C44.6863 37.2435 44.9419 37.5349 45.1106 37.8766C45.1299 37.9132 45.1106 37.872 45.1081 37.8657C45.1152 37.8811 45.1214 37.8989 45.1271 37.9155C45.1392 37.9506 45.1509 37.9857 45.1613 38.0213C45.1851 38.1053 45.2045 38.1904 45.2195 38.2764C45.2486 38.454 45.2687 38.633 45.2797 38.8126C45.3106 39.2097 45.324 39.6081 45.3759 40.0033C45.4278 40.3985 45.5072 40.8429 45.8104 41.1306C46.1562 41.4592 46.6812 40.9359 46.3345 40.6065C46.3132 40.5868 46.2932 40.5657 46.2746 40.5433C46.32 40.5991 46.2686 40.5259 46.2556 40.5022C46.2479 40.4882 46.2139 40.4141 46.2248 40.4405C46.2326 40.4596 46.2019 40.371 46.1951 40.3486C46.1496 40.1919 46.118 40.0314 46.1008 39.8691C46.0544 39.455 46.0441 39.0379 46.0053 38.6229C45.9907 38.2314 45.9019 37.8462 45.7436 37.4878C45.5269 37.0685 45.2099 36.7093 44.8208 36.4422C44.3892 36.1755 43.9111 35.9927 43.4117 35.9033C42.947 35.7988 42.7488 36.5133 43.2146 36.6181L43.214 36.618Z" fill="#211715"/>
<path d="M44.2732 31.6243C43.355 30.7117 42.0553 30.2708 40.7895 30.145C40.1558 30.0803 39.516 30.1123 38.892 30.2399C38.5918 30.3032 38.2988 30.3963 38.0172 30.5179C37.983 30.5326 37.8218 30.5914 37.9383 30.5532C37.8993 30.5661 37.8611 30.5792 37.8214 30.5906C37.6903 30.6289 37.557 30.6598 37.4237 30.6896C37.301 30.7171 37.1777 30.743 37.054 30.7668C37.0088 30.7753 36.9631 30.7823 36.9179 30.7907C36.8218 30.8097 37.0105 30.7801 36.9162 30.7907C36.8567 30.7978 36.7974 30.8062 36.7383 30.8148C36.3968 30.8717 36.064 30.9715 35.7477 31.1119C35.0738 31.4119 34.4605 31.8327 33.9383 32.3536C32.8744 33.3899 32.1704 34.778 31.7899 36.2043C31.3312 37.9228 31.3867 39.7215 31.74 41.4533C31.7661 41.5481 31.8288 41.6286 31.9143 41.6771C31.9998 41.7257 32.1011 41.7382 32.1958 41.7121C32.2906 41.686 32.3711 41.6233 32.4196 41.5378C32.4682 41.4523 32.4808 41.351 32.4546 41.2563C32.1378 39.8274 32.1139 38.3491 32.3842 36.9107C32.6572 35.5898 33.2169 34.2579 34.1174 33.2399C34.554 32.7369 35.0729 32.3116 35.6518 31.9823C35.9228 31.8286 36.2109 31.7074 36.5102 31.6211C36.7543 31.5522 37.0028 31.5264 37.2514 31.4802C37.4969 31.4339 37.7426 31.382 37.9832 31.3148C38.1974 31.2549 38.383 31.1559 38.5918 31.0871C39.1202 30.9192 39.6729 30.8405 40.2272 30.8541C41.477 30.8704 42.8428 31.2474 43.7491 32.1483C44.0877 32.4849 44.6121 31.9609 44.2732 31.624V31.6243Z" fill="#211715"/>
<path d="M45.0334 32.8935C46.0537 33.3197 46.7516 34.259 47.1468 35.2629C47.6564 36.556 47.8119 37.9767 47.7657 39.3582C47.7548 40.0426 47.6574 40.7229 47.4759 41.3829C47.3409 41.8415 48.0559 42.0373 48.1905 41.58C48.59 40.2229 48.5906 38.7093 48.4095 37.3169C48.2284 35.9245 47.8188 34.5104 46.9116 33.4088C46.4605 32.867 45.8831 32.4446 45.2301 32.1787C45.1354 32.1531 45.0343 32.166 44.949 32.2144C44.8636 32.2629 44.8008 32.343 44.7741 32.4375C44.7505 32.5322 44.7643 32.6324 44.8125 32.7173C44.8607 32.8022 44.9397 32.8652 45.0331 32.8935H45.0334Z" fill="#211715"/>
<path d="M38.7635 47.4495C39.1787 47.6644 39.6412 47.7717 40.1086 47.7614C40.595 47.7817 41.0742 47.6397 41.4709 47.3576C41.5404 47.2881 41.5795 47.1938 41.5795 47.0955C41.5795 46.9972 41.5404 46.903 41.4709 46.8335C41.4 46.7666 41.3063 46.7294 41.2089 46.7294C41.1115 46.7294 41.0177 46.7666 40.9468 46.8335C41.0605 46.7448 40.9777 46.8089 40.9482 46.8278C40.9215 46.8449 40.8939 46.8607 40.8658 46.8755C40.8512 46.883 40.8363 46.8898 40.8216 46.8974C40.7865 46.9155 40.7723 46.8985 40.8414 46.8905C40.8023 46.9009 40.7643 46.9148 40.7277 46.9318C40.6237 46.9644 40.5173 46.9887 40.4094 47.0044C40.4657 46.9958 40.4138 47.0033 40.3857 47.0061C40.3548 47.0092 40.3235 47.0118 40.2919 47.0138C40.2167 47.0188 40.1412 47.0206 40.0659 47.0202C39.9982 47.0202 39.9307 47.0175 39.8633 47.0129C39.8324 47.0107 39.8015 47.0083 39.7706 47.0052C39.762 47.0043 39.6495 46.9862 39.7323 47.0012C39.6321 46.9848 39.5328 46.9628 39.4351 46.9352C39.3934 46.9227 39.3529 46.9077 39.3115 46.8939C39.2189 46.8622 39.3721 46.9247 39.2884 46.8849C39.2372 46.8608 39.1871 46.8358 39.1372 46.8095C39.0524 46.7608 38.9517 46.7475 38.8572 46.7727C38.7626 46.7978 38.6819 46.8594 38.6325 46.9438C38.5831 47.0283 38.5692 47.1288 38.5936 47.2236C38.6181 47.3183 38.6791 47.3995 38.7632 47.4495H38.7635Z" fill="#211715"/>
<path d="M39.9091 44.295C39.9705 44.5165 40.0195 44.7412 40.056 44.9681L40.0429 44.8696C40.0471 44.9003 40.0479 44.9314 40.0453 44.9622L40.0586 44.8637C40.0565 44.8779 40.0531 44.892 40.0484 44.9056L40.0858 44.8171C40.0814 44.8265 40.0762 44.8354 40.0703 44.8439L40.1282 44.7689C40.1217 44.7769 40.1144 44.7841 40.1063 44.7905L40.1812 44.7326C40.1641 44.7433 40.1463 44.7527 40.1279 44.7609L40.2164 44.7235C40.1876 44.7359 40.1575 44.7447 40.1265 44.7497L40.2258 44.7365C40.1978 44.7399 40.1695 44.7399 40.1415 44.7365L40.24 44.7497C40.2082 44.7453 40.1769 44.7376 40.1451 44.7332C40.0973 44.7179 40.0463 44.7156 39.9973 44.7266C39.9483 44.7288 39.9008 44.744 39.8596 44.7706C39.8175 44.7952 39.7807 44.8278 39.7513 44.8665C39.7219 44.9053 39.7004 44.9495 39.688 44.9966C39.6757 45.0437 39.6727 45.0928 39.6793 45.141C39.686 45.1892 39.702 45.2357 39.7266 45.2777C39.7501 45.3195 39.7819 45.3561 39.8199 45.3853C39.858 45.4145 39.9016 45.4357 39.948 45.4476C40.0228 45.4576 40.0952 45.4766 40.1712 45.4798C40.2865 45.4805 40.4003 45.4534 40.5029 45.4006C40.5682 45.3706 40.626 45.3265 40.6721 45.2714C40.7182 45.2163 40.7515 45.1516 40.7696 45.0821C40.7932 44.9699 40.7921 44.854 40.7663 44.7423C40.7297 44.5252 40.6795 44.31 40.6238 44.0975C40.5971 44.0049 40.5365 43.9258 40.4539 43.876C40.3903 43.8388 40.317 43.8214 40.2434 43.826C40.1698 43.8306 40.0993 43.8571 40.0408 43.902C39.9824 43.947 39.9386 44.0083 39.9152 44.0782C39.8918 44.1481 39.8898 44.2234 39.9094 44.2945L39.9091 44.295Z" fill="#211715"/>
<path d="M36.3724 42.3809C36.26 42.7465 36.3334 43.5873 37.0258 43.6588C37.9409 43.6532 37.9895 42.6368 37.6815 42.1589C37.4293 41.7676 36.6876 41.6048 36.3724 42.3809Z" fill="#211715"/>
<path d="M43.7011 42.3809C43.8136 42.7464 43.7403 43.5873 43.0479 43.6588C42.1328 43.6532 42.084 42.6368 42.392 42.1587C42.6442 41.7674 43.3859 41.6048 43.7011 42.3809Z" fill="#211715"/>
<path d="M42.2194 46.4241C42.3115 46.4962 42.3944 46.5791 42.4665 46.6712L42.4086 46.5961C42.4851 46.6957 42.5486 46.8047 42.5974 46.9204L42.5601 46.8318C42.5888 46.9013 42.6121 46.973 42.6297 47.0461C42.6426 47.093 42.6647 47.137 42.6946 47.1754C42.7245 47.2138 42.7617 47.2459 42.804 47.27C42.8464 47.294 42.893 47.3095 42.9414 47.3155C42.9897 47.3215 43.0387 47.3179 43.0856 47.305C43.1326 47.2921 43.1765 47.27 43.2149 47.2401C43.2533 47.2102 43.2855 47.173 43.3095 47.1306C43.3335 47.0883 43.349 47.0417 43.355 46.9933C43.361 46.945 43.3575 46.896 43.3445 46.8491C43.2527 46.4756 43.0417 46.1422 42.7434 45.8994C42.6714 45.8334 42.5784 45.7951 42.4808 45.7913C42.3826 45.7917 42.2884 45.8305 42.2183 45.8994C42.1491 45.9692 42.1103 46.0636 42.1102 46.1619C42.1094 46.2107 42.1186 46.2592 42.1372 46.3043C42.1558 46.3495 42.1834 46.3903 42.2183 46.4244L42.2194 46.4241Z" fill="#211715"/>
<path d="M62.3553 57.9785C62.4544 57.8926 62.5708 57.829 62.6966 57.7922C62.8224 57.7554 62.9547 57.7462 63.0844 57.7652C63.2116 57.7832 63.3333 57.8294 63.4403 57.9006C63.5474 57.9718 63.6371 58.066 63.703 58.1764C63.7793 58.3288 63.8227 58.4955 63.8304 58.6658C63.8859 59.3318 63.7574 60.0002 63.4587 60.598C63.3178 60.9002 63.1135 61.1684 62.8595 61.3843C62.6533 61.5515 62.4072 61.6625 62.1453 61.7063L62.023 61.725C61.9644 61.9444 61.8986 62.1293 61.8661 62.2275C61.6623 62.7808 60.54 64.6689 59.1161 65.4146C59.1311 65.8186 59.1743 66.221 59.2453 66.619C59.3225 67.0576 59.2978 67.4514 59.9093 67.6722C59.9442 67.6852 60.6814 68.0187 60.9574 68.1421L60.7279 68.3467C60.033 68.9685 58.3875 70.159 56.3041 70.159C55.4275 70.1757 54.5576 70.0025 53.7542 69.6514C52.9508 69.3003 52.2328 68.7796 51.6495 68.1249C51.9687 68.0057 52.7305 67.6904 52.7782 67.6722C53.3897 67.4514 53.365 67.0576 53.4422 66.619C53.5082 66.2499 53.5504 65.8769 53.5687 65.5024C52.8628 65.1584 52.2421 64.6618 51.7516 64.0486C51.1997 63.3717 50.7972 62.5859 50.5703 61.7426L50.3373 61.7068C50.0754 61.6629 49.8294 61.552 49.6231 61.3848C49.3691 61.1688 49.1648 60.9006 49.0239 60.5985C48.7253 60.0007 48.5967 59.3322 48.6522 58.6662C48.66 58.496 48.7034 58.3293 48.7796 58.1769C48.8455 58.0664 48.9352 57.972 49.0423 57.9008C49.1494 57.8295 49.2711 57.7832 49.3984 57.7652C49.5281 57.7462 49.6604 57.7554 49.7862 57.7922C49.912 57.829 50.0284 57.8926 50.1274 57.9785C50.1274 57.9785 50.2216 52.7092 56.2611 52.7092C62.3007 52.7092 62.3553 57.9785 62.3553 57.9785Z" fill="white"/>
<path d="M51.7217 68.4987C52.0813 68.3739 52.4309 68.2125 52.7828 68.0677C53.027 67.991 53.2516 67.862 53.4408 67.6897C53.6281 67.4709 53.7428 67.1993 53.769 66.9125C53.8495 66.4455 53.9062 65.9748 53.9388 65.5021C53.9388 65.4038 53.8998 65.3096 53.8303 65.2401C53.7608 65.1706 53.6665 65.1315 53.5682 65.1315C53.4699 65.1315 53.3757 65.1706 53.3062 65.2401C53.2367 65.3096 53.1976 65.4038 53.1976 65.5021C53.1708 65.9433 53.1174 66.3825 53.0376 66.8172C53.0271 66.8827 53.0128 66.9476 52.9949 67.0114C52.9882 67.0337 52.9396 67.1393 52.9842 67.0524C52.9671 67.0857 52.9488 67.1174 52.9302 67.1496C52.9067 67.183 52.9085 67.1805 52.9359 67.1435C52.9229 67.1589 52.9092 67.1733 52.8948 67.1873C52.8869 67.195 52.8114 67.2523 52.8705 67.2114C52.8099 67.2532 52.7447 67.2881 52.6763 67.3155C52.2915 67.4678 51.9151 67.6481 51.524 67.7839C51.4305 67.812 51.3514 67.8751 51.3032 67.96C51.255 68.0449 51.2413 68.1451 51.265 68.2399C51.292 68.3341 51.3548 68.4141 51.4401 68.4625C51.5254 68.5109 51.6263 68.5239 51.721 68.4987H51.7217Z" fill="#211715"/>
<path d="M58.745 65.4133C58.7673 65.8669 58.8178 66.3186 58.896 66.7659C58.9437 67.0593 58.9797 67.3474 59.1664 67.5916C59.2717 67.7299 59.4064 67.8432 59.5608 67.9231C59.6207 67.954 59.6843 67.9796 59.7461 68.005C59.7653 68.0127 59.8679 68.0553 59.7739 68.0144C59.6873 67.9767 59.7739 68.0153 59.7955 68.0246C59.9864 68.1094 60.1766 68.1957 60.3669 68.2814C60.5638 68.37 60.7596 68.4621 60.9592 68.5439C61.054 68.5694 61.1549 68.5565 61.2403 68.508C61.3256 68.4596 61.3884 68.3795 61.4151 68.2851C61.4388 68.1904 61.4251 68.0902 61.3769 68.0053C61.3287 67.9204 61.2497 67.8573 61.1563 67.8291C61.3223 67.8975 61.2026 67.8481 61.1638 67.8311L61.019 67.7662C60.8955 67.711 60.7724 67.6556 60.6498 67.6001C60.4387 67.505 60.229 67.4047 60.0143 67.3178C59.952 67.2918 59.8919 67.2608 59.8346 67.2251C59.7728 67.1882 59.85 67.2514 59.8019 67.1981C59.7873 67.1827 59.7158 67.0832 59.7597 67.1558C59.7395 67.1221 59.7202 67.0891 59.7024 67.0539C59.7446 67.1377 59.6958 67.0269 59.6899 67.0065C59.6714 66.9392 59.6567 66.871 59.646 66.802C59.5632 66.3431 59.5096 65.8793 59.4858 65.4135C59.4858 65.3152 59.4467 65.2209 59.3772 65.1514C59.3077 65.0819 59.2134 65.0429 59.1151 65.0429C59.0169 65.0429 58.9226 65.0819 58.8531 65.1514C58.7836 65.2209 58.7445 65.3152 58.7445 65.4135L58.745 65.4133Z" fill="#211715"/>
<path d="M44.6302 79.517C44.7828 76.9723 44.9391 74.2422 45.9352 72.0147C46.2001 71.4226 46.8798 70.6806 47.8672 69.9907C48.8876 69.2941 49.971 68.6946 51.1034 68.2003C51.2273 68.1446 51.3653 68.128 51.499 68.1526C51.6326 68.1771 51.7556 68.2418 51.8517 68.3379C52.4306 68.9288 53.1241 69.3951 53.8898 69.7082C54.6555 70.0213 55.477 70.1745 56.3041 70.1585C58.3875 70.1585 60.0323 68.9681 60.7279 68.3462C60.8251 68.2593 60.9453 68.2024 61.0741 68.1824C61.2029 68.1624 61.3348 68.1802 61.4537 68.2335C62.5593 68.7209 63.6177 69.3091 64.6154 69.9907C65.6028 70.6806 66.2832 71.4226 66.5474 72.0147C67.5437 74.2422 67.6998 76.9723 67.8524 79.517" fill="white"/>
<path d="M45.0008 79.517C45.0858 78.0991 45.1637 76.6757 45.3966 75.272C45.508 74.5752 45.6687 73.8871 45.8776 73.2131C46.0498 72.6688 46.2393 72.1082 46.5907 71.6504C47.4155 70.5764 48.6786 69.8456 49.8539 69.2192C50.1793 69.0457 50.5087 68.8807 50.8422 68.7242C51.0561 68.624 51.3614 68.4 51.5825 68.591C51.8583 68.8285 52.1086 69.0822 52.4039 69.2999C53.2711 69.929 54.2829 70.3293 55.3457 70.4638C56.657 70.637 57.99 70.4162 59.1754 69.8294C59.6238 69.611 60.05 69.3496 60.4481 69.049C60.6141 68.9239 60.7744 68.7933 60.933 68.6591C61.1618 68.4657 61.3482 68.5879 61.593 68.7019C62.8992 69.3103 64.247 70.0268 65.306 71.0182C65.7185 71.3791 66.0504 71.8228 66.2802 72.3204C66.5381 72.9417 66.7403 73.5845 66.8846 74.2415C67.2023 75.6264 67.3244 77.046 67.4172 78.4609C67.4403 78.8128 67.4613 79.1649 67.4824 79.5168C67.5108 79.9909 68.2522 79.9941 68.2236 79.5168C68.1604 78.0184 68.0175 76.5244 67.7957 75.0411C67.6821 74.334 67.5169 73.6362 67.3016 72.9532C67.1075 72.3517 66.8885 71.7412 66.5021 71.2347C65.6176 70.0753 64.3051 69.2751 63.0371 68.5964C62.6857 68.4082 62.3291 68.2299 61.9676 68.0616C61.6177 67.8986 61.2844 67.7336 60.8905 67.844C60.628 67.9176 60.4452 68.1101 60.2419 68.2764C60.086 68.4041 59.9486 68.5062 59.7582 68.635C58.7584 69.3134 57.5912 69.7726 56.372 69.7871C55.2081 69.8115 54.0628 69.4916 53.0801 68.8674C52.7738 68.6724 52.4891 68.4455 52.2308 68.1904C52.0405 67.9717 51.7795 67.8266 51.4933 67.7804C51.1125 67.7375 50.7701 67.9418 50.4367 68.0988C49.0814 68.7372 47.6989 69.497 46.6071 70.5374C46.1684 70.9323 45.8134 71.4112 45.5634 71.9459C45.2821 72.6024 45.0599 73.2827 44.8994 73.9787C44.5581 75.436 44.4256 76.936 44.328 78.426C44.3039 78.7894 44.2817 79.1529 44.2605 79.5162C44.2321 79.9926 44.9733 79.9911 45.0017 79.5162L45.0008 79.517Z" fill="#211715"/>
<path d="M48.0743 76.7558C48.0897 76.8457 48.0698 76.6968 48.073 76.7384C48.075 76.7655 48.079 76.7926 48.0817 76.8196C48.0885 76.8898 48.0937 76.9603 48.0985 77.0305C48.1129 77.243 48.1224 77.4558 48.1311 77.6686C48.1563 78.2844 48.1712 78.9007 48.185 79.517C48.1955 79.9932 48.9368 79.9957 48.9262 79.517C48.9123 78.8876 48.8969 78.258 48.8706 77.6291C48.8674 77.2709 48.8402 76.9133 48.7891 76.5588C48.7622 76.4644 48.6993 76.3844 48.614 76.336C48.5286 76.2875 48.4277 76.2746 48.3329 76.3C48.2393 76.3279 48.1602 76.391 48.112 76.4759C48.0637 76.5608 48.0502 76.6611 48.0741 76.7558H48.0743Z" fill="#211715"/>
<path d="M63.7329 76.6897C63.6836 77.0296 63.657 77.3724 63.6532 77.7158C63.6276 78.3159 63.6125 78.9164 63.5987 79.517C63.5987 79.6153 63.6378 79.7095 63.7073 79.779C63.7768 79.8485 63.8711 79.8876 63.9693 79.8876C64.0676 79.8876 64.1619 79.8485 64.2314 79.779C64.3009 79.7095 64.34 79.6153 64.34 79.517C64.3534 78.929 64.3682 78.3408 64.3928 77.753C64.4011 77.5568 64.4102 77.3607 64.4237 77.1647C64.4284 77.0934 64.4337 77.022 64.4406 76.951C64.4475 76.9229 64.4506 76.8941 64.4499 76.8653C64.4653 76.8838 64.4325 76.9734 64.4481 76.8867C64.4714 76.7921 64.4576 76.6921 64.4095 76.6073C64.3613 76.5225 64.2825 76.4593 64.1892 76.4309C64.0945 76.4056 63.9936 76.4186 63.9083 76.467C63.823 76.5154 63.7601 76.5954 63.7332 76.6897H63.7329Z" fill="#211715"/>
<path d="M63.0377 54.9745C62.9064 54.1299 62.6092 53.3196 62.1631 52.5904C61.9111 52.1855 61.6144 51.8102 61.2786 51.4717C61.1441 51.3355 60.9389 51.1366 60.7999 51.0155C60.4353 50.7245 60.0459 50.4662 59.6362 50.2434C59.3103 50.0642 58.9703 49.9118 58.6198 49.7877C57.8449 49.5206 57.0304 49.387 56.2108 49.3925C54.7514 49.3677 53.3218 49.8076 52.1289 50.6487C50.8552 51.5625 49.4128 53.1897 49.2974 55.8237C49.2935 56.4598 49.3427 57.0951 49.4446 57.723L49.4489 57.7604C49.569 57.7497 49.69 57.7633 49.8047 57.8005C49.9194 57.8376 50.0254 57.8975 50.1165 57.9766C50.2056 57.9828 50.2951 57.9836 50.3844 57.9789C50.6858 57.9678 50.9704 57.7861 51.1444 57.4034C51.9697 55.6893 53.3088 54.338 55.5321 53.7819C55.7425 53.7293 55.992 53.6916 56.1679 53.7963C56.4278 53.9507 56.3388 54.2962 56.5573 54.4864C56.7879 54.6871 57.2059 54.607 57.5212 54.4988C57.9993 54.3352 58.466 54.1399 58.9183 53.9144C58.98 53.9331 59.0166 53.9445 59.0166 53.9445C59.3564 54.0491 59.7756 54.4444 60.0162 54.723C60.6608 55.4998 61.0919 56.4312 61.267 57.4253C61.2708 57.5393 61.2995 57.651 61.3511 57.7527C61.4027 57.8544 61.476 57.9435 61.5658 58.0138C61.6891 58.0841 61.8298 58.1179 61.9716 58.1114C62.1134 58.1049 62.2504 58.0583 62.3668 57.9771C62.5419 57.8248 62.769 57.7459 63.0008 57.7569L63.0065 57.7223C63.1133 57.0952 63.1529 56.4584 63.1245 55.8229C63.1121 55.5387 63.0831 55.2554 63.0377 54.9745Z" fill="#7A7473"/>
<path d="M63.3639 57.8205C63.6661 55.9747 63.4862 54.02 62.4837 52.4026C61.5097 50.8656 59.9934 49.751 58.2357 49.2801C56.4059 48.788 54.4592 48.9825 52.7629 49.8269C51.5211 50.4694 50.4918 51.4575 49.7993 52.6721C49.3508 53.4833 49.0685 54.3757 48.9688 55.2973C48.8918 56.1401 48.9317 56.9895 49.0872 57.8214C49.114 57.9158 49.1769 57.9958 49.2622 58.0443C49.3475 58.0927 49.4485 58.1056 49.5432 58.0802C49.6367 58.0521 49.7158 57.989 49.764 57.9041C49.8122 57.8193 49.8258 57.7191 49.8021 57.6244C49.5826 56.2772 49.6106 54.7985 50.2082 53.4998C50.7286 52.3918 51.5504 51.4527 52.5795 50.7897C53.9749 49.9191 55.6371 49.5799 57.2621 49.8343C58.9051 50.078 60.3977 50.9269 61.4469 52.2146C62.6684 53.7239 62.9556 55.7508 62.6487 57.6242C62.6256 57.7189 62.6395 57.8188 62.6876 57.9036C62.7357 57.9883 62.8144 58.0514 62.9075 58.0801C63.0023 58.1054 63.1033 58.0925 63.1886 58.0441C63.2739 57.9957 63.3368 57.9156 63.3636 57.8213L63.3639 57.8205Z" fill="#211715"/>
<path d="M59.1289 53.3851C58.708 53.6178 58.2718 53.8218 57.8234 53.9956C57.6411 54.0696 57.4551 54.1344 57.2663 54.1897C57.1503 54.2206 56.9369 54.288 56.8226 54.2206C56.7454 54.1743 56.7338 54.0109 56.6991 53.9175C56.6335 53.7167 56.4923 53.5493 56.3053 53.451C55.8901 53.2444 55.3743 53.4266 54.9626 53.5582C53.5338 54.0074 52.2951 54.9194 51.4418 56.1504C51.2181 56.4746 51.0193 56.8153 50.8472 57.1696C50.7897 57.3397 50.6733 57.4837 50.5189 57.5754C50.4661 57.6003 50.408 57.6115 50.3498 57.608C50.2956 57.6066 50.2984 57.6051 50.3167 57.6072C50.2869 57.6037 50.1563 57.5501 50.2125 57.583C49.7997 57.3416 49.4264 57.982 49.8383 58.2229C50.0127 58.3131 50.2076 58.3564 50.4037 58.3486C50.5999 58.3407 50.7906 58.282 50.9573 58.1783C51.3253 57.952 51.4678 57.5606 51.6651 57.1995C52.0015 56.5731 52.4392 56.0067 52.9606 55.5232C53.5041 55.0304 54.1365 54.6455 54.824 54.3891C55.0105 54.3191 55.1997 54.257 55.3916 54.2029C55.5255 54.1647 55.8323 54.0316 55.9667 54.1102C56.0318 54.148 56.0408 54.3052 56.0703 54.386C56.1043 54.4925 56.1592 54.5911 56.2316 54.6762C56.304 54.7613 56.3927 54.8312 56.4923 54.8819C56.9608 55.1073 57.5036 54.9061 57.9547 54.7358C58.487 54.5357 59.0046 54.2983 59.5035 54.0254C59.9217 53.7958 59.5481 53.1556 59.1294 53.3854L59.1289 53.3851Z" fill="#211715"/>
<path d="M58.9176 54.302C59.3367 54.445 59.6951 54.8867 59.9428 55.2344C60.2653 55.6797 60.5205 56.17 60.7004 56.6895C60.786 56.9415 60.8523 57.1996 60.8987 57.4616C60.9278 57.7232 61.0298 57.9712 61.1932 58.1775C61.5389 58.5758 62.1325 58.5302 62.5536 58.2975C62.9706 58.0666 62.5976 57.4263 62.1795 57.6574C62.1177 57.7003 62.0458 57.7263 61.971 57.7327C61.8961 57.7392 61.8208 57.7259 61.7526 57.6942C61.7063 57.6738 61.7814 57.7377 61.7415 57.6812C61.7741 57.7275 61.7085 57.6315 61.7032 57.6215C61.6604 57.5285 61.6336 57.429 61.6242 57.3271C61.5347 56.7988 61.3704 56.286 61.1362 55.8041C60.9066 55.3135 60.6125 54.8558 60.2616 54.4432C59.9603 54.063 59.565 53.7682 59.1147 53.5878C58.6622 53.4334 58.468 54.1493 58.9176 54.3027V54.302Z" fill="#211715"/>
<path d="M62.6168 58.2405C62.6738 58.1948 62.7398 58.1615 62.8104 58.1429C62.8811 58.1242 62.9549 58.1206 63.027 58.1322C63.0992 58.1439 63.1681 58.1705 63.2293 58.2104C63.2905 58.2504 63.3427 58.3027 63.3824 58.364C63.4537 58.5352 63.4842 58.7205 63.4715 58.9054C63.477 59.1234 63.4597 59.3413 63.4199 59.5557C63.2749 60.3087 62.8825 61.2011 62.0456 61.3493C61.9513 61.3762 61.8713 61.4391 61.8228 61.5243C61.7744 61.6096 61.7614 61.7105 61.7866 61.8053C61.8147 61.8989 61.8777 61.978 61.9627 62.0262C62.0476 62.0744 62.1479 62.088 62.2426 62.0641C63.4894 61.843 64.0875 60.4427 64.1962 59.3154C64.2505 58.7515 64.2271 58.0617 63.7524 57.6752C63.515 57.4857 63.2183 57.386 62.9146 57.3936C62.611 57.4013 62.3197 57.5157 62.0921 57.7169C62.0233 57.7867 61.9847 57.8809 61.9847 57.9789C61.9847 58.077 62.0233 58.1711 62.0921 58.241C62.1626 58.3086 62.2564 58.3463 62.3541 58.3463C62.4518 58.3463 62.5457 58.3086 62.6162 58.241L62.6168 58.2405Z" fill="#211715"/>
<path d="M61.7653 61.0278C61.7501 61.2798 61.7031 61.5288 61.6256 61.769C61.5971 61.8648 61.5658 61.9596 61.5341 62.0542C61.5219 62.0905 61.4613 62.2395 61.509 62.1333C61.3937 62.3847 61.2615 62.628 61.1133 62.8615C60.689 63.569 60.1457 64.1978 59.5074 64.7205C59.1657 65.0012 58.7664 65.2033 58.3378 65.3123C57.8735 65.4204 58.07 66.1353 58.5348 66.0272C59.4587 65.8122 60.2347 65.1542 60.846 64.4569C61.3644 63.8869 61.7969 63.2443 62.1297 62.5495C62.3505 62.071 62.4782 61.5548 62.5058 61.0286C62.5235 60.5516 61.7821 60.5522 61.7645 61.0286L61.7653 61.0278Z" fill="#211715"/>
<path d="M50.3893 57.7164C50.1617 57.5152 49.8705 57.4006 49.5667 57.393C49.263 57.3854 48.9664 57.4851 48.729 57.6747C48.2537 58.0608 48.231 58.7513 48.2852 59.315C48.3933 60.443 48.9918 61.8425 50.2388 62.0636C50.3334 62.087 50.4335 62.0732 50.5183 62.0251C50.6031 61.9769 50.6663 61.8981 50.6948 61.8048C50.72 61.7101 50.707 61.6092 50.6585 61.5239C50.6101 61.4386 50.5301 61.3757 50.4358 61.3488C49.5996 61.2006 49.2071 60.308 49.0615 59.5552C49.0235 59.3521 49.0061 59.1457 49.0093 58.9391C48.9932 58.7429 49.0239 58.5456 49.099 58.3636C49.1387 58.3022 49.1908 58.2499 49.2521 58.2099C49.3133 58.17 49.3822 58.1433 49.4543 58.1317C49.5265 58.12 49.6003 58.1237 49.671 58.1423C49.7416 58.161 49.8076 58.1943 49.8646 58.24C49.9353 58.3071 50.0291 58.3446 50.1266 58.3446C50.2242 58.3446 50.3179 58.3071 50.3887 58.24C50.4574 58.1701 50.496 58.076 50.496 57.978C50.496 57.88 50.4574 57.7858 50.3887 57.7159L50.3893 57.7164Z" fill="#211715"/>
<path d="M50.0161 60.966C50.208 62.213 50.7314 63.3854 51.5316 64.3608C52.3718 65.3491 53.4844 66.0702 54.7911 66.2083C54.8892 66.2077 54.9831 66.1684 55.0525 66.0991C55.1218 66.0297 55.1611 65.9358 55.1617 65.8377C55.1595 65.7401 55.1198 65.6471 55.0507 65.578C54.9817 65.509 54.8887 65.4692 54.7911 65.4671C53.6638 65.348 52.7189 64.6332 52.0131 63.7861C51.2992 62.929 50.9198 61.8558 50.7314 60.769C50.7046 60.6746 50.6417 60.5946 50.5565 60.5462C50.4712 60.4978 50.3703 60.4848 50.2755 60.5102C50.1818 60.538 50.1025 60.601 50.0542 60.686C50.0059 60.7709 49.9922 60.8713 50.0161 60.966Z" fill="#211715"/>
<path d="M62.6769 79.517C62.7178 79.1468 62.7366 78.7745 62.7331 78.4021C62.7479 78.2368 62.7252 78.0703 62.6665 77.915C62.6261 77.8279 62.567 77.7507 62.4934 77.689C62.4198 77.6273 62.3335 77.5826 62.2406 77.558C62.0843 77.5314 61.9253 77.524 61.7672 77.5358H61.204C60.4859 77.5358 59.7578 77.4996 59.0406 77.5358C58.9454 77.5367 58.852 77.5616 58.7691 77.6082C58.6861 77.6548 58.6163 77.7217 58.566 77.8025C58.4957 77.9697 58.4704 78.1524 58.4927 78.3324C58.4905 78.7276 58.4911 79.1229 58.5194 79.5173C58.5217 79.6149 58.5615 79.7078 58.6305 79.7768C58.6995 79.8458 58.7924 79.8856 58.89 79.8879C58.988 79.8871 59.0818 79.8478 59.1512 79.7785C59.2205 79.7091 59.2598 79.6153 59.2606 79.5173C59.2381 79.202 59.2327 78.8862 59.233 78.5701C59.233 78.4445 59.2344 78.319 59.2347 78.1935C59.2347 78.081 59.2791 78.0288 59.1344 78.1755C58.9076 78.4058 59.0094 78.2577 59.0611 78.277C59.1514 78.2898 59.2432 78.2898 59.3335 78.277H59.7813C60.4917 78.277 61.2023 78.277 61.9132 78.277C61.9664 78.2806 62.0196 78.2806 62.0728 78.277C62.0661 78.2981 61.9579 78.2152 61.9905 78.1931C61.9828 78.272 61.9828 78.3515 61.9905 78.4303C61.9931 78.7934 61.9744 79.1563 61.9342 79.5171C61.9348 79.6153 61.974 79.7092 62.0434 79.7786C62.1128 79.848 62.2067 79.8872 62.3049 79.8878C62.4024 79.8854 62.4953 79.8456 62.5644 79.7766C62.6334 79.7076 62.6731 79.6147 62.6755 79.5171L62.6769 79.517Z" fill="#211715"/>
<path d="M55.0811 62.8191C55.3924 63.1237 55.8768 63.2192 56.2962 63.2189C56.7156 63.2185 57.2 63.1239 57.5113 62.8191C57.5462 62.7847 57.574 62.7439 57.5929 62.6988C57.6119 62.6537 57.6218 62.6053 57.622 62.5564C57.6222 62.5075 57.6127 62.459 57.5941 62.4137C57.5755 62.3685 57.5481 62.3274 57.5135 62.2928C57.4789 62.2582 57.4378 62.2308 57.3926 62.2122C57.3473 62.1936 57.2988 62.1841 57.2499 62.1843C57.201 62.1845 57.1526 62.1944 57.1075 62.2133C57.0624 62.2323 57.0215 62.2601 56.9872 62.295C56.973 62.3089 56.9139 62.3567 56.9736 62.3104C57.0334 62.2641 56.9582 62.3195 56.9398 62.3306C56.9151 62.3461 56.8896 62.3598 56.8637 62.3729C56.8456 62.3803 56.8279 62.3886 56.8107 62.3978C56.8344 62.3824 56.8879 62.3683 56.8305 62.3882C56.7479 62.4176 56.6632 62.4407 56.5771 62.4576C56.5626 62.4602 56.4665 62.4806 56.56 62.4622C56.5344 62.4662 56.5086 62.4688 56.4827 62.4701C56.421 62.4753 56.3592 62.4776 56.2974 62.4776C56.2406 62.4776 56.1836 62.4758 56.1276 62.4715C56.0961 62.4713 56.0647 62.4682 56.0338 62.4622C56.0789 62.4755 56.0746 62.4679 56.0306 62.46C55.9432 62.4448 55.8573 62.422 55.7738 62.3921C55.7411 62.3802 55.7008 62.3479 55.7831 62.3978C55.7695 62.3895 55.7531 62.3841 55.7388 62.3771C55.71 62.3629 55.6818 62.3476 55.6544 62.3308C55.6336 62.3181 55.6144 62.3014 55.5927 62.2896C55.6958 62.3478 55.639 62.3266 55.6064 62.2951C55.5369 62.2254 55.4426 62.1862 55.3442 62.1861C55.2458 62.186 55.1514 62.2249 55.0818 62.2944C55.0121 62.3639 54.9729 62.4582 54.9728 62.5566C54.9726 62.655 55.0116 62.7494 55.0811 62.8191Z" fill="#211715"/>
<path d="M56.1367 60.2064C56.1909 60.4021 56.2343 60.6006 56.2667 60.8011L56.2534 60.7026C56.2574 60.7297 56.2581 60.7572 56.2557 60.7846L56.2689 60.686C56.2671 60.6986 56.2641 60.711 56.2599 60.723L56.2973 60.6345C56.2936 60.6428 56.2892 60.6507 56.2842 60.6583L56.3422 60.5832C56.3364 60.5903 56.3299 60.5967 56.3228 60.6024L56.3978 60.5444C56.3827 60.5538 56.367 60.5621 56.3507 60.5693L56.4392 60.5319C56.4138 60.5429 56.3871 60.5506 56.3598 60.5551L56.4583 60.5418C56.4336 60.5448 56.4085 60.5448 56.3838 60.5418L56.4823 60.5549C56.4543 60.5511 56.4267 60.5443 56.3986 60.5404C56.3508 60.5251 56.2998 60.5228 56.2508 60.5338C56.2018 60.536 56.1543 60.5512 56.1131 60.5778C56.071 60.6024 56.0342 60.635 56.0048 60.6737C55.9754 60.7125 55.9539 60.7567 55.9415 60.8038C55.9292 60.8509 55.9262 60.9 55.9328 60.9482C55.9395 60.9964 55.9555 61.0429 55.9801 61.0849C56.0036 61.1267 56.0354 61.1633 56.0734 61.1925C56.1115 61.2217 56.1551 61.2429 56.2015 61.2548C56.2713 61.2642 56.339 61.2816 56.41 61.2849C56.5195 61.2853 56.6275 61.2593 56.7247 61.2089C56.7873 61.1797 56.8427 61.1371 56.8869 61.084C56.9311 61.0309 56.963 60.9686 56.9803 60.9018C57.003 60.795 57.002 60.6846 56.9773 60.5783C56.9451 60.3866 56.9001 60.1968 56.8515 60.0089C56.8248 59.9163 56.7641 59.8373 56.6816 59.7875C56.618 59.7502 56.5447 59.7328 56.4711 59.7374C56.3975 59.7421 56.327 59.7685 56.2685 59.8135C56.2101 59.8584 56.1664 59.9197 56.1429 59.9897C56.1195 60.0596 56.1175 60.1349 56.1371 60.206L56.1367 60.2064Z" fill="#211715"/>
<path d="M53.0917 58.6263C52.9945 58.9417 53.0579 59.6674 53.6555 59.7291C54.4453 59.7245 54.4873 58.8471 54.2214 58.4346C54.0037 58.0967 53.3636 57.9564 53.0917 58.6263Z" fill="#211715"/>
<path d="M59.3909 58.6262C59.4881 58.9417 59.4248 59.6673 58.8272 59.7291C58.0373 59.7243 57.9953 58.8471 58.2612 58.4345C58.4783 58.0967 59.119 57.9564 59.3909 58.6262Z" fill="#211715"/>
</g>
<defs>
<clipPath id="clip0_16_397">
<rect width="60" height="60" fill="white" transform="translate(25 25)"/>
</clipPath>
</defs>
</svg>
