<svg width="110" height="110" viewBox="0 0 110 110" fill="none" xmlns="http://www.w3.org/2000/svg">
<circle cx="55" cy="55" r="55" fill="#EDEDED"/>
<circle cx="55" cy="55" r="50" stroke="white" stroke-width="2"/>
<g clip-path="url(#clip0_16_375)">
<path d="M55.4837 75.5622C55.3253 75.6044 55.1622 75.625 55 75.625C54.8378 75.625 54.6747 75.6044 54.5162 75.5622L26.875 68.1906V70.0225L55 77.4672L83.125 70.0225V68.1906L55.4837 75.5622Z" fill="#B4CCB9"/>
<path d="M55 79.375C54.9194 79.375 54.8387 79.3647 54.76 79.3441L26.875 71.9622V73.7491L50.3434 80.0078L52.2063 80.5047C52.2803 81.5763 52.9422 82.4838 53.8825 82.8916L54.5162 83.0613C54.6747 83.1035 54.8378 83.1241 55 83.1241C55.1622 83.1241 55.3253 83.1035 55.4837 83.0613L56.1175 82.8916C57.0578 82.4838 57.7197 81.5763 57.7937 80.5047L59.6566 80.0078L83.125 73.7491V71.9622L55.24 79.3441C55.1613 79.3647 55.0806 79.375 55 79.375Z" fill="#B4CCB9"/>
<path d="M26.8759 26.8759H26.8731L26.875 66.25L54.0625 73.4997V34.1247L26.8759 26.875V26.8759Z" fill="#F9EBB2"/>
<path d="M55.9375 34.1247V73.4997L83.125 66.25V26.875L55.9375 34.1247Z" fill="#F9EBB2"/>
<path opacity="0.15" d="M55.9375 34.1247V73.4997L83.125 66.25V26.875L55.9375 34.1247Z" fill="#231F20"/>
<path d="M33.43 52.9638L46.9928 56.8394C47.0791 56.8628 47.1653 56.875 47.2506 56.875C47.6585 56.875 48.0335 56.6069 48.1516 56.1944C48.2931 55.6975 48.0053 55.1781 47.5066 55.0356L33.9447 51.16C33.4506 51.0231 32.9285 51.3053 32.786 51.805C32.6435 52.3019 32.9322 52.8213 33.43 52.9638Z" fill="#394240"/>
<path d="M33.43 59.5272L46.9928 63.4019C47.0791 63.4253 47.1653 63.4375 47.2506 63.4375C47.6585 63.4375 48.0335 63.1694 48.1516 62.7569C48.2931 62.2591 48.0053 61.7406 47.5066 61.5981L33.9447 57.7234C33.4506 57.5866 32.9285 57.8687 32.786 58.3684C32.6435 58.8662 32.9322 59.3847 33.43 59.5272Z" fill="#394240"/>
<path d="M33.43 46.4013L46.9928 50.2769C47.0791 50.3003 47.1653 50.3125 47.2506 50.3125C47.6585 50.3125 48.0335 50.0444 48.1516 49.6319C48.2931 49.135 48.0053 48.6156 47.5066 48.4731L33.9447 44.5975C33.4506 44.4606 32.9285 44.7428 32.786 45.2425C32.6435 45.7394 32.9322 46.2588 33.43 46.4013Z" fill="#394240"/>
<path d="M33.43 39.8388L46.9928 43.7144C47.0791 43.7378 47.1653 43.75 47.2506 43.75C47.6585 43.75 48.0335 43.4819 48.1516 43.0694C48.2931 42.5725 48.0053 42.0531 47.5066 41.9106L33.9447 38.035C33.4506 37.8981 32.9285 38.1803 32.786 38.68C32.6435 39.1769 32.9322 39.6963 33.43 39.8388Z" fill="#394240"/>
<path d="M62.4653 56.8394C62.5516 56.8394 62.6378 56.8272 62.7231 56.8038L76.2859 52.9281C76.7838 52.7856 77.0725 52.2663 76.9309 51.7694C76.7884 51.2706 76.2672 50.9894 75.7722 51.1244L62.2084 55C61.7106 55.1425 61.4219 55.6619 61.5634 56.1588C61.6825 56.5713 62.0575 56.8394 62.4653 56.8394Z" fill="#394240"/>
<path d="M76.0553 57.7234L62.4925 61.5981C61.9947 61.7406 61.7059 62.2591 61.8475 62.7569C61.9666 63.1694 62.3416 63.4375 62.7494 63.4375C62.8356 63.4375 62.9219 63.4253 63.0072 63.4019L76.57 59.5272C77.0678 59.3847 77.3566 58.8662 77.215 58.3684C77.0716 57.8697 76.5503 57.5884 76.0553 57.7234Z" fill="#394240"/>
<path d="M62.7494 50.3125C62.8356 50.3125 62.9219 50.3003 63.0072 50.2769L76.57 46.4013C77.0678 46.2588 77.3565 45.7394 77.215 45.2425C77.0725 44.7438 76.5512 44.4606 76.0562 44.5975L62.4934 48.4731C61.9956 48.6156 61.7069 49.135 61.8484 49.6319C61.9665 50.0444 62.3415 50.3125 62.7494 50.3125Z" fill="#394240"/>
<path d="M62.7494 43.75C62.8356 43.75 62.9219 43.7378 63.0072 43.7144L76.57 39.8388C77.0678 39.6963 77.3565 39.1769 77.215 38.68C77.0725 38.1813 76.5512 37.9 76.0562 38.035L62.4934 41.9106C61.9956 42.0531 61.7069 42.5725 61.8484 43.0694C61.9665 43.4819 62.3415 43.75 62.7494 43.75Z" fill="#394240"/>
<path d="M84.2678 25.3881C83.9359 25.1341 83.5328 25.0009 83.1231 25.0009C82.9619 25.0009 82.7997 25.0216 82.6413 25.0628L55 32.4344L27.3588 25.0628C27.1994 25.0206 27.0372 25.0009 26.8759 25.0009C26.4662 25.0009 26.0641 25.1341 25.7322 25.3881C25.2709 25.7434 25 26.2928 25 26.875V73.7491C25 74.5984 25.5709 75.3419 26.3913 75.5613L50.6472 82.0291C51.3334 83.7672 53.0191 85 55 85C56.9809 85 58.6666 83.7672 59.3528 82.0291L83.6087 75.5613C84.4291 75.3419 85 74.5984 85 73.7491V26.875C85 26.2928 84.7291 25.7434 84.2678 25.3881ZM26.8759 26.8759L54.0625 34.1247V73.4997L26.875 66.25L26.8731 26.8759C26.8731 26.8759 26.8741 26.8759 26.8759 26.8759ZM83.125 73.7491L59.6566 80.0078L57.7938 80.5047C57.7197 81.5763 57.0578 82.4838 56.1175 82.8916L55.4837 83.0613C55.3253 83.1034 55.1622 83.1241 55 83.1241C54.8378 83.1241 54.6747 83.1034 54.5162 83.0613L53.8825 82.8916C52.9422 82.4838 52.2803 81.5763 52.2063 80.5047L50.3434 80.0078L26.875 73.7491V71.9622L54.76 79.3441C54.8387 79.3647 54.9194 79.375 55 79.375C55.0806 79.375 55.1613 79.3647 55.24 79.3441L83.125 71.9622V73.7491ZM83.125 70.0225L55 77.4672L26.875 70.0225V68.1906L54.5162 75.5613C54.6747 75.6044 54.8378 75.625 55 75.625C55.1622 75.625 55.3253 75.6044 55.4837 75.5622L83.125 68.1906V70.0225ZM83.125 66.25L55.9375 73.4997V34.1247L83.125 26.875V66.25Z" fill="#394240"/>
</g>
<defs>
<clipPath id="clip0_16_375">
<rect width="60" height="60" fill="white" transform="translate(25 25)"/>
</clipPath>
</defs>
</svg>
