<svg width="110" height="110" viewBox="0 0 110 110" fill="none" xmlns="http://www.w3.org/2000/svg">
<circle cx="55" cy="55" r="55" fill="#EDEDED"/>
<circle cx="55" cy="55" r="50" stroke="white" stroke-width="2"/>
<g opacity="0.6">
<path d="M79 44.6055L54 39.2406C53.375 39.0828 52.625 39.714 52.5 40.503C52.375 41.2919 52.875 42.2387 53.5 42.3965L61 43.9744L73.75 46.6568L77.5 47.4458V70.7988C77.5 71.7456 78 72.3767 78.75 72.3767C79.5 72.3767 80 71.7456 80 70.7988V46.1834C80 45.3945 79.5 44.7633 79 44.6055Z" fill="#37474F"/>
<path d="M78.75 73.9546C80.1307 73.9546 81.25 72.5417 81.25 70.7988C81.25 69.0559 80.1307 67.643 78.75 67.643C77.3693 67.643 76.25 69.0559 76.25 70.7988C76.25 72.5417 77.3693 73.9546 78.75 73.9546Z" fill="#37474F"/>
<path d="M82.5 75.5325C82.5 78.215 78.75 85 78.75 85C78.75 85 75 78.215 75 75.5325C75 72.8501 76.625 70.7988 78.75 70.7988C80.875 70.7988 82.5 72.8501 82.5 75.5325Z" fill="#37474F"/>
<path d="M36.25 64.4872H73.75C73.75 60.6671 69.2691 57.3754 62.8164 55.8791L56.125 59.5957C55.375 59.9112 54.625 59.9112 53.875 59.5957L47.1836 55.8791C40.7309 57.3754 36.25 60.6671 36.25 64.4872Z" fill="#37474F"/>
<path d="M47.1836 55.8791C49.5629 55.3273 52.2103 55.0197 55 55.0197C57.7897 55.0197 60.4371 55.3273 62.8164 55.8791L73.75 49.8063V46.6568L61 43.9744H36.25V49.8063L47.1836 55.8791Z" fill="#78909C"/>
<path d="M53.875 59.5957C54.625 59.9112 55.375 59.9112 56.125 59.5957L62.8164 55.8791C60.4371 55.3273 57.7897 55.0197 55 55.0197C52.2103 55.0197 49.5629 55.3273 47.1836 55.8791L53.875 59.5957Z" fill="#78909C"/>
<path d="M36.25 64.4872C36.25 60.6671 40.7309 57.3754 47.1836 55.8791L36.25 49.8063L36.25 64.4872Z" fill="#37474F"/>
<path fill-rule="evenodd" clip-rule="evenodd" d="M25.75 40.9763L53.875 25.355C54.625 24.8817 55.375 24.8817 56.125 25.355L84.25 40.9763C85.25 41.6075 85.25 43.3432 84.25 43.9744L73.75 49.8063V46.6568L61 43.9744H36.25V49.8063L25.75 43.9744C24.75 43.3432 24.75 41.6075 25.75 40.9763Z" fill="#78909C"/>
<path d="M73.75 64.4872H36.25C36.25 69.7159 44.6447 73.9546 55 73.9546C65.3553 73.9546 73.75 69.7159 73.75 64.4872Z" fill="#37474F"/>
<path d="M62.8164 55.8791C69.2691 57.3754 73.75 60.6671 73.75 64.4872L73.75 49.8063L62.8164 55.8791Z" fill="#37474F"/>
</g>
</svg>
