<svg width="307" height="117" viewBox="0 0 307 117" fill="none" xmlns="http://www.w3.org/2000/svg">
<g filter="url(#filter0_d_12_171)">
<path d="M28.8783 51.6167C29.6855 49.2738 30.0889 48.1023 30.6859 47.7777C31.2023 47.4966 31.824 47.4966 32.3407 47.7777C32.9373 48.1023 33.3407 49.2738 34.1479 51.6167L39.4838 67.1059C39.7136 67.7727 39.8283 68.1061 40.0354 68.3544C40.2182 68.5737 40.4514 68.7447 40.7147 68.8524C41.0125 68.9743 41.3622 68.9815 42.0616 68.9958L58.3096 69.33C60.7674 69.3805 61.9962 69.4058 62.4868 69.8781C62.9111 70.2869 63.1033 70.8837 62.998 71.4662C62.8766 72.1393 61.8972 72.8883 59.9383 74.3872L46.9878 84.2938C46.4303 84.7206 46.1517 84.9338 45.9815 85.2089C45.8313 85.4524 45.7423 85.7289 45.7221 86.0146C45.6995 86.3383 45.8006 86.6761 46.0032 87.352L50.7093 103.048C51.421 105.422 51.777 106.609 51.4834 107.225C51.2292 107.759 50.7261 108.128 50.1445 108.207C49.4725 108.298 48.4638 107.59 46.446 106.173L33.1064 96.8068C32.5321 96.4036 32.2452 96.202 31.9331 96.1236C31.6573 96.0546 31.3689 96.0546 31.0935 96.1236C30.7814 96.202 30.4941 96.4036 29.9198 96.8068L16.5804 106.173C14.5627 107.59 13.5538 108.298 12.8819 108.207C12.3004 108.128 11.7972 107.759 11.5431 107.225C11.2494 106.609 11.6053 105.422 12.3172 103.048L17.0232 87.352C17.2258 86.6761 17.3271 86.3383 17.3043 86.0146C17.2841 85.7289 17.1951 85.4524 17.0448 85.2089C16.8748 84.9338 16.596 84.7206 16.0385 84.2938L3.08825 74.3872C1.12935 72.8883 0.149897 72.1393 0.0283116 71.4662C-0.0769558 70.8837 0.115239 70.2869 0.53969 69.8781C1.03008 69.4058 2.25894 69.3805 4.71663 69.33L20.9646 68.9958C21.664 68.9815 22.0138 68.9743 22.3118 68.8524C22.575 68.7447 22.8082 68.5737 22.991 68.3544C23.198 68.1061 23.3129 67.7727 23.5426 67.1059L28.8783 51.6167Z" fill="#FFD600"/>
</g>
<g filter="url(#filter1_d_12_171)">
<path d="M87.8717 33.7793C88.6789 31.4364 89.0823 30.2649 89.6793 29.9403C90.1957 29.6592 90.8174 29.6592 91.3341 29.9403C91.9307 30.2649 92.3341 31.4364 93.1413 33.7793L98.4772 49.2685C98.707 49.9353 98.8217 50.2687 99.0289 50.517C99.2116 50.7363 99.4448 50.9073 99.7081 51.015C100.006 51.1369 100.356 51.1441 101.055 51.1584L117.303 51.4925C119.761 51.5431 120.99 51.5684 121.48 52.0407C121.905 52.4495 122.097 53.0463 121.991 53.6288C121.87 54.3019 120.891 55.0509 118.932 56.5498L105.981 66.4564C105.424 66.8832 105.145 67.0964 104.975 67.3715C104.825 67.615 104.736 67.8915 104.716 68.1772C104.693 68.5009 104.794 68.8387 104.997 69.5146L109.703 85.2103C110.414 87.5845 110.77 88.7716 110.477 89.388C110.223 89.9217 109.719 90.2905 109.138 90.3696C108.466 90.4608 107.457 89.7525 105.439 88.3357L92.0998 78.9694C91.5256 78.5662 91.2386 78.3646 90.9265 78.2862C90.6507 78.2172 90.3623 78.2172 90.0869 78.2862C89.7748 78.3646 89.4875 78.5662 88.9132 78.9694L75.5738 88.3357C73.5561 89.7525 72.5472 90.4608 71.8753 90.3696C71.2938 90.2905 70.7906 89.9217 70.5365 89.388C70.2428 88.7716 70.5988 87.5845 71.3106 85.2103L76.0166 69.5146C76.2192 68.8387 76.3205 68.5009 76.2977 68.1772C76.2775 67.8915 76.1885 67.615 76.0382 67.3715C75.8682 67.0964 75.5894 66.8832 75.0319 66.4564L62.0817 56.5498C60.1228 55.0509 59.1433 54.3019 59.0217 53.6288C58.9165 53.0463 59.1086 52.4495 59.5331 52.0407C60.0235 51.5684 61.2523 51.5431 63.71 51.4925L79.958 51.1584C80.6575 51.1441 81.0072 51.1369 81.3052 51.015C81.5684 50.9073 81.8016 50.7363 81.9844 50.517C82.1914 50.2687 82.3063 49.9353 82.536 49.2685L87.8717 33.7793Z" fill="#FFD600"/>
</g>
<g filter="url(#filter2_d_12_171)">
<path d="M146.865 4.04981C147.672 1.70687 148.076 0.535432 148.673 0.210758C149.189 -0.0702528 149.811 -0.0702528 150.328 0.210758C150.924 0.535432 151.328 1.70687 152.135 4.04981L157.471 19.539C157.7 20.2058 157.815 20.5392 158.022 20.7875C158.205 21.0069 158.438 21.1778 158.702 21.2855C158.999 21.4074 159.349 21.4146 160.049 21.429L176.296 21.7631C178.754 21.8136 179.983 21.8389 180.474 22.3112C180.898 22.72 181.09 23.3168 180.985 23.8993C180.863 24.5724 179.884 25.3215 177.925 26.8203L164.975 36.7269C164.417 37.1537 164.139 37.3669 163.968 37.642C163.818 37.8855 163.729 38.162 163.709 38.4477C163.686 38.7714 163.787 39.1092 163.99 39.7851L168.696 55.4808C169.408 57.855 169.764 59.0421 169.47 59.6585C169.216 60.1922 168.713 60.561 168.131 60.6401C167.459 60.7313 166.451 60.023 164.433 58.6062L151.093 49.24C150.519 48.8368 150.232 48.6351 149.92 48.5567C149.644 48.4877 149.356 48.4877 149.08 48.5567C148.768 48.6351 148.481 48.8368 147.907 49.24L134.567 58.6062C132.55 60.023 131.541 60.7313 130.869 60.6401C130.287 60.561 129.784 60.1922 129.53 59.6585C129.236 59.0421 129.592 57.855 130.304 55.4808L135.01 39.7851C135.213 39.1092 135.314 38.7714 135.291 38.4477C135.271 38.162 135.182 37.8855 135.032 37.642C134.862 37.3669 134.583 37.1537 134.025 36.7269L121.075 26.8203C119.116 25.3215 118.137 24.5724 118.015 23.8993C117.91 23.3168 118.102 22.72 118.527 22.3112C119.017 21.8389 120.246 21.8136 122.704 21.7631L138.951 21.429C139.651 21.4146 140.001 21.4074 140.299 21.2855C140.562 21.1778 140.795 21.0069 140.978 20.7875C141.185 20.5392 141.3 20.2058 141.529 19.539L146.865 4.04981Z" fill="#FFD600"/>
</g>
<g filter="url(#filter3_d_12_171)">
<path d="M205.859 33.7793C206.666 31.4364 207.069 30.2649 207.666 29.9403C208.183 29.6592 208.804 29.6592 209.321 29.9403C209.918 30.2649 210.321 31.4364 211.128 33.7793L216.464 49.2685C216.694 49.9353 216.809 50.2687 217.016 50.517C217.198 50.7363 217.432 50.9073 217.695 51.015C217.993 51.1369 218.342 51.1441 219.042 51.1584L235.29 51.4925C237.748 51.5431 238.976 51.5684 239.467 52.0407C239.891 52.4495 240.084 53.0463 239.978 53.6288C239.857 54.3019 238.877 55.0509 236.919 56.5498L223.968 66.4564C223.411 66.8832 223.132 67.0964 222.962 67.3715C222.812 67.615 222.723 67.8915 222.702 68.1772C222.68 68.5009 222.781 68.8387 222.983 69.5146L227.69 85.2103C228.401 87.5845 228.757 88.7716 228.464 89.388C228.21 89.9217 227.706 90.2905 227.125 90.3696C226.453 90.4608 225.444 89.7525 223.426 88.3357L210.087 78.9694C209.512 78.5662 209.225 78.3646 208.913 78.2862C208.638 78.2172 208.349 78.2172 208.074 78.2862C207.762 78.3646 207.474 78.5662 206.9 78.9694L193.561 88.3357C191.543 89.7525 190.534 90.4608 189.862 90.3696C189.281 90.2905 188.778 89.9217 188.523 89.388C188.23 88.7716 188.586 87.5845 189.297 85.2103L194.003 69.5146C194.206 68.8387 194.307 68.5009 194.285 68.1772C194.264 67.8915 194.175 67.615 194.025 67.3715C193.855 67.0964 193.576 66.8832 193.019 66.4564L180.069 56.5498C178.11 55.0509 177.13 54.3019 177.009 53.6288C176.903 53.0463 177.096 52.4495 177.52 52.0407C178.01 51.5684 179.239 51.5431 181.697 51.4925L197.945 51.1584C198.644 51.1441 198.994 51.1369 199.292 51.015C199.555 50.9073 199.789 50.7363 199.971 50.517C200.178 50.2687 200.293 49.9353 200.523 49.2685L205.859 33.7793Z" fill="#FFD600"/>
</g>
<g filter="url(#filter4_d_12_171)">
<path d="M264.852 51.6167C265.659 49.2738 266.063 48.1023 266.66 47.7777C267.176 47.4966 267.798 47.4966 268.314 47.7777C268.911 48.1023 269.314 49.2738 270.122 51.6167L275.458 67.1059C275.687 67.7727 275.802 68.1061 276.009 68.3544C276.192 68.5737 276.425 68.7447 276.688 68.8524C276.986 68.9743 277.336 68.9815 278.035 68.9958L294.283 69.33C296.741 69.3805 297.97 69.4058 298.46 69.8781C298.885 70.2869 299.077 70.8837 298.972 71.4662C298.85 72.1393 297.871 72.8883 295.912 74.3872L282.962 84.2938C282.404 84.7206 282.125 84.9338 281.955 85.2089C281.805 85.4524 281.716 85.7289 281.696 86.0146C281.673 86.3383 281.774 86.6761 281.977 87.352L286.683 103.048C287.395 105.422 287.751 106.609 287.457 107.225C287.203 107.759 286.7 108.128 286.118 108.207C285.446 108.298 284.438 107.59 282.42 106.173L269.08 96.8068C268.506 96.4036 268.219 96.202 267.907 96.1236C267.631 96.0546 267.343 96.0546 267.067 96.1236C266.755 96.202 266.468 96.4036 265.894 96.8068L252.554 106.173C250.536 107.59 249.527 108.298 248.856 108.207C248.274 108.128 247.771 107.759 247.517 107.225C247.223 106.609 247.579 105.422 248.291 103.048L252.997 87.352C253.199 86.6761 253.301 86.3383 253.278 86.0146C253.258 85.7289 253.169 85.4524 253.018 85.2089C252.848 84.9338 252.57 84.7206 252.012 84.2938L239.062 74.3872C237.103 72.8883 236.124 72.1393 236.002 71.4662C235.897 70.8837 236.089 70.2869 236.513 69.8781C237.004 69.4058 238.233 69.3805 240.69 69.33L256.938 68.9958C257.638 68.9815 257.988 68.9743 258.285 68.8524C258.549 68.7447 258.782 68.5737 258.965 68.3544C259.172 68.1061 259.287 67.7727 259.516 67.1059L264.852 51.6167Z" fill="#FFD600"/>
</g>
<defs>
<filter id="filter0_d_12_171" x="0" y="47.5669" width="71.0263" height="68.6479" filterUnits="userSpaceOnUse" color-interpolation-filters="sRGB">
<feFlood flood-opacity="0" result="BackgroundImageFix"/>
<feColorMatrix in="SourceAlpha" type="matrix" values="0 0 0 0 0 0 0 0 0 0 0 0 0 0 0 0 0 0 127 0" result="hardAlpha"/>
<feOffset dx="4" dy="4"/>
<feGaussianBlur stdDeviation="2"/>
<feComposite in2="hardAlpha" operator="out"/>
<feColorMatrix type="matrix" values="0 0 0 0 1 0 0 0 0 0.839216 0 0 0 0 0 0 0 0 0.3 0"/>
<feBlend mode="normal" in2="BackgroundImageFix" result="effect1_dropShadow_12_171"/>
<feBlend mode="normal" in="SourceGraphic" in2="effect1_dropShadow_12_171" result="shape"/>
</filter>
<filter id="filter1_d_12_171" x="58.9934" y="29.7295" width="71.0263" height="68.6479" filterUnits="userSpaceOnUse" color-interpolation-filters="sRGB">
<feFlood flood-opacity="0" result="BackgroundImageFix"/>
<feColorMatrix in="SourceAlpha" type="matrix" values="0 0 0 0 0 0 0 0 0 0 0 0 0 0 0 0 0 0 127 0" result="hardAlpha"/>
<feOffset dx="4" dy="4"/>
<feGaussianBlur stdDeviation="2"/>
<feComposite in2="hardAlpha" operator="out"/>
<feColorMatrix type="matrix" values="0 0 0 0 1 0 0 0 0 0.839216 0 0 0 0 0 0 0 0 0.3 0"/>
<feBlend mode="normal" in2="BackgroundImageFix" result="effect1_dropShadow_12_171"/>
<feBlend mode="normal" in="SourceGraphic" in2="effect1_dropShadow_12_171" result="shape"/>
</filter>
<filter id="filter2_d_12_171" x="117.987" y="0" width="71.0263" height="68.6479" filterUnits="userSpaceOnUse" color-interpolation-filters="sRGB">
<feFlood flood-opacity="0" result="BackgroundImageFix"/>
<feColorMatrix in="SourceAlpha" type="matrix" values="0 0 0 0 0 0 0 0 0 0 0 0 0 0 0 0 0 0 127 0" result="hardAlpha"/>
<feOffset dx="4" dy="4"/>
<feGaussianBlur stdDeviation="2"/>
<feComposite in2="hardAlpha" operator="out"/>
<feColorMatrix type="matrix" values="0 0 0 0 1 0 0 0 0 0.839216 0 0 0 0 0 0 0 0 0.3 0"/>
<feBlend mode="normal" in2="BackgroundImageFix" result="effect1_dropShadow_12_171"/>
<feBlend mode="normal" in="SourceGraphic" in2="effect1_dropShadow_12_171" result="shape"/>
</filter>
<filter id="filter3_d_12_171" x="176.98" y="29.7295" width="71.0263" height="68.6479" filterUnits="userSpaceOnUse" color-interpolation-filters="sRGB">
<feFlood flood-opacity="0" result="BackgroundImageFix"/>
<feColorMatrix in="SourceAlpha" type="matrix" values="0 0 0 0 0 0 0 0 0 0 0 0 0 0 0 0 0 0 127 0" result="hardAlpha"/>
<feOffset dx="4" dy="4"/>
<feGaussianBlur stdDeviation="2"/>
<feComposite in2="hardAlpha" operator="out"/>
<feColorMatrix type="matrix" values="0 0 0 0 1 0 0 0 0 0.839216 0 0 0 0 0 0 0 0 0.3 0"/>
<feBlend mode="normal" in2="BackgroundImageFix" result="effect1_dropShadow_12_171"/>
<feBlend mode="normal" in="SourceGraphic" in2="effect1_dropShadow_12_171" result="shape"/>
</filter>
<filter id="filter4_d_12_171" x="235.974" y="47.5669" width="71.0263" height="68.6479" filterUnits="userSpaceOnUse" color-interpolation-filters="sRGB">
<feFlood flood-opacity="0" result="BackgroundImageFix"/>
<feColorMatrix in="SourceAlpha" type="matrix" values="0 0 0 0 0 0 0 0 0 0 0 0 0 0 0 0 0 0 127 0" result="hardAlpha"/>
<feOffset dx="4" dy="4"/>
<feGaussianBlur stdDeviation="2"/>
<feComposite in2="hardAlpha" operator="out"/>
<feColorMatrix type="matrix" values="0 0 0 0 1 0 0 0 0 0.839216 0 0 0 0 0 0 0 0 0.3 0"/>
<feBlend mode="normal" in2="BackgroundImageFix" result="effect1_dropShadow_12_171"/>
<feBlend mode="normal" in="SourceGraphic" in2="effect1_dropShadow_12_171" result="shape"/>
</filter>
</defs>
</svg>
